<svg width="40" height="40" viewBox="0 0 40 40" fill="none" xmlns="http://www.w3.org/2000/svg">
<path d="M3.33331 30V3.33337M36.6666 30V3.33337M9.99998 18.3334C9.99998 13.6667 13.6666 10 18.3333 10H21.6666C26.3333 10 30 13.6667 30 18.3334V28.3334C30 33 26.3333 36.6667 21.6666 36.6667H18.3333C13.6666 36.6667 9.99998 33 9.99998 28.3334V18.3334Z" stroke="#D2B48C" stroke-width="2" stroke-linecap="round" stroke-linejoin="round"/>
<path d="M30 21.6667C30 26.3334 26.3333 30.0001 21.6667 30.0001H18.3333C13.6667 30.0001 10 26.3334 10 21.6667" stroke="#D2B48C" stroke-width="2" stroke-linecap="round" stroke-linejoin="round"/>
<path d="M18.3333 23.3334C17.3333 23.3334 16.6666 22.6667 16.6666 21.6667V18.3334C16.6666 17.3334 17.3333 16.6667 18.3333 16.6667H21.6666C22.6666 16.6667 23.3333 17.3334 23.3333 18.3334V21.6667C23.3333 22.6667 22.6666 23.3334 21.6666 23.3334H18.3333Z" stroke="#D2B48C" stroke-width="2" stroke-linecap="round" stroke-linejoin="round"/>
</svg>
