<svg width="40" height="40" viewBox="0 0 40 40" fill="none" xmlns="http://www.w3.org/2000/svg">
<path d="M21.6667 15.0001C21.6667 15.8841 22.0179 16.732 22.643 17.3571C23.2681 17.9822 24.1159 18.3334 25 18.3334C25.8841 18.3334 26.7319 17.9822 27.357 17.3571C27.9821 16.732 28.3333 15.8841 28.3333 15.0001C28.3333 14.116 27.9821 13.2682 27.357 12.6431C26.7319 12.0179 25.8841 11.6667 25 11.6667C24.1159 11.6667 23.2681 12.0179 22.643 12.6431C22.0179 13.2682 21.6667 14.116 21.6667 15.0001Z" stroke="#D2B48C" stroke-width="1.5" stroke-linecap="round" stroke-linejoin="round"/>
<path d="M19.1667 3.33337L12.5617 27.3534M9.99999 36.6667L11.375 31.6667M36.6667 20.8334L3.33333 30M16.6667 15C16.6667 17.2102 17.5446 19.3298 19.1074 20.8926C20.6702 22.4554 22.7899 23.3334 25 23.3334C27.2101 23.3334 29.3297 22.4554 30.8926 20.8926C32.4554 19.3298 33.3333 17.2102 33.3333 15C33.3333 12.7899 32.4554 10.6703 30.8926 9.10748C29.3297 7.54468 27.2101 6.66671 25 6.66671C22.7899 6.66671 20.6702 7.54468 19.1074 9.10748C17.5446 10.6703 16.6667 12.7899 16.6667 15Z" stroke="#D2B48C" stroke-width="1.5" stroke-linecap="round" stroke-linejoin="round"/>
</svg>
