<svg width="40" height="40" viewBox="0 0 40 40" fill="none" xmlns="http://www.w3.org/2000/svg">
<path d="M30 20C30 18.895 29.561 17.8352 28.7796 17.0538C27.9982 16.2724 26.9384 15.8334 25.8333 15.8334C24.7283 15.8334 23.6685 16.2724 22.8871 17.0538C22.1057 17.8352 21.6667 18.895 21.6667 20M10 5.00004V20M14.1667 4.16671V12.5M18.3333 3.33337V12.5M6.66667 7.50004L10 6.98004M33.3333 3.33337L22.5 5.02671M6.66667 11.6667L10 11.4584M33.3333 10L22.5 10.6767M8.185 20H31.8167C34.4867 20 35.4667 20.6167 34.8 23.3034C33.6233 28.0417 30.295 29.2184 27.2183 32.31C26.4717 33.06 27.635 34.1717 27.635 34.9984C27.635 36.555 26.1567 36.6667 24.9767 36.6667H15.0267C13.8467 36.6667 12.3667 36.555 12.3683 35C12.3683 34.19 13.4967 33.0267 12.785 32.31C9.70834 29.2184 6.38 28.0417 5.20334 23.3034C4.53667 20.6184 5.51667 20 8.18667 20" stroke="#D2B48C" stroke-width="1.5" stroke-linecap="round" stroke-linejoin="round"/>
</svg>
