<svg width="40" height="40" viewBox="0 0 40 40" fill="none" xmlns="http://www.w3.org/2000/svg">
<path d="M35 17.8125H5C4.75136 17.8125 4.5129 17.9113 4.33709 18.0871C4.16127 18.2629 4.0625 18.5014 4.0625 18.75C4.06808 21.6976 4.8882 24.5864 6.43231 27.0972C7.97642 29.6081 10.1844 31.6433 12.8125 32.9781V33.75C12.8125 34.3302 13.043 34.8866 13.4532 35.2968C13.8634 35.707 14.4198 35.9375 15 35.9375H25C25.5802 35.9375 26.1366 35.707 26.5468 35.2968C26.957 34.8866 27.1875 34.3302 27.1875 33.75V32.9781C29.8156 31.6433 32.0236 29.6081 33.5677 27.0972C35.1118 24.5864 35.9319 21.6976 35.9375 18.75C35.9375 18.5014 35.8387 18.2629 35.6629 18.0871C35.4871 17.9113 35.2486 17.8125 35 17.8125ZM25.8594 31.5375C25.6963 31.6123 25.5581 31.7322 25.4612 31.8832C25.3642 32.0341 25.3126 32.2097 25.3125 32.3891V33.75C25.3125 33.8329 25.2796 33.9124 25.221 33.971C25.1624 34.0296 25.0829 34.0625 25 34.0625H15C14.9171 34.0625 14.8376 34.0296 14.779 33.971C14.7204 33.9124 14.6875 33.8329 14.6875 33.75V32.3891C14.6874 32.2097 14.6358 32.0341 14.5388 31.8832C14.4419 31.7322 14.3037 31.6123 14.1406 31.5375C11.8408 30.4769 9.86867 28.8172 8.4309 26.7323C6.99314 24.6474 6.1427 22.2141 5.96875 19.6875H34.0312C33.8573 22.2141 33.0069 24.6474 31.5691 26.7323C30.1313 28.8172 28.1592 30.4769 25.8594 31.5375ZM13.0188 8.78751C13.8078 7.80626 14.1766 6.9547 14.0312 6.44376C13.9188 6.04845 13.4625 5.88595 13.4578 5.88439C13.2505 5.81159 13.0753 5.66827 12.9629 5.47946C12.8505 5.29065 12.8079 5.06835 12.8427 4.85138C12.8775 4.6344 12.9874 4.43655 13.1533 4.29236C13.3191 4.14818 13.5303 4.06683 13.75 4.06251C13.8443 4.06201 13.9382 4.07625 14.0281 4.1047C14.1703 4.14845 15.4188 4.57345 15.8219 5.8922C16.175 7.04689 15.7234 8.41564 14.4812 9.96251C13.6922 10.9438 13.3234 11.7953 13.4688 12.3063C13.5812 12.7016 14.0375 12.8641 14.0422 12.8656C14.2495 12.9384 14.4247 13.0818 14.5371 13.2706C14.6495 13.4594 14.6921 13.6817 14.6573 13.8987C14.6225 14.1156 14.5126 14.3135 14.3467 14.4577C14.1809 14.6018 13.9697 14.6832 13.75 14.6875C13.6557 14.688 13.5618 14.6738 13.4719 14.6453C13.3297 14.6016 12.0812 14.1766 11.6781 12.8578C11.325 11.7031 11.7766 10.3344 13.0188 8.78751ZM19.2688 8.78751C20.0578 7.80626 20.4266 6.9547 20.2812 6.44376C20.1688 6.04845 19.7125 5.88595 19.7078 5.88439C19.5005 5.81159 19.3253 5.66827 19.2129 5.47946C19.1005 5.29065 19.0579 5.06835 19.0927 4.85138C19.1275 4.6344 19.2374 4.43655 19.4033 4.29236C19.5691 4.14818 19.7803 4.06683 20 4.06251C20.0943 4.06201 20.1882 4.07625 20.2781 4.1047C20.4203 4.14845 21.6687 4.57345 22.0719 5.8922C22.425 7.04689 21.9734 8.41564 20.7312 9.96251C19.9422 10.9438 19.5734 11.7953 19.7188 12.3063C19.8312 12.7016 20.2875 12.8641 20.2922 12.8656C20.4995 12.9384 20.6747 13.0818 20.7871 13.2706C20.8995 13.4594 20.9421 13.6817 20.9073 13.8987C20.8725 14.1156 20.7626 14.3135 20.5967 14.4577C20.4309 14.6018 20.2197 14.6832 20 14.6875C19.9057 14.688 19.8118 14.6738 19.7219 14.6453C19.5797 14.6016 18.3312 14.1766 17.9281 12.8578C17.575 11.7031 18.0266 10.3344 19.2688 8.78751ZM25.5188 8.78751C26.3078 7.80626 26.6766 6.9547 26.5312 6.44376C26.4188 6.04845 25.9625 5.88595 25.9578 5.88439C25.7505 5.81159 25.5753 5.66827 25.4629 5.47946C25.3505 5.29065 25.3079 5.06835 25.3427 4.85138C25.3775 4.6344 25.4874 4.43655 25.6533 4.29236C25.8191 4.14818 26.0303 4.06683 26.25 4.06251C26.3443 4.06201 26.4382 4.07625 26.5281 4.1047C26.6703 4.14845 27.9187 4.57345 28.3219 5.8922C28.675 7.04689 28.2234 8.41564 26.9812 9.96251C26.1922 10.9438 25.8234 11.7953 25.9688 12.3063C26.0812 12.7016 26.5375 12.8641 26.5422 12.8656C26.7495 12.9384 26.9247 13.0818 27.0371 13.2706C27.1495 13.4594 27.1921 13.6817 27.1573 13.8987C27.1225 14.1156 27.0126 14.3135 26.8467 14.4577C26.6809 14.6018 26.4697 14.6832 26.25 14.6875C26.1557 14.688 26.0618 14.6738 25.9719 14.6453C25.8297 14.6016 24.5813 14.1766 24.1781 12.8578C23.825 11.7031 24.2766 10.3344 25.5188 8.78751Z" fill="#D2B48C"/>
</svg>
