<svg width="40" height="40" viewBox="0 0 40 40" fill="none" xmlns="http://www.w3.org/2000/svg">
<path d="M33.3333 21.6666C33.3333 26.67 33.3333 29.1733 31.8683 30.7266C28.39 34.4183 11.1933 33.9766 8.13167 30.7266C6.66667 29.1733 6.66667 26.67 6.66667 21.6666" stroke="#D2B48C" stroke-width="1.5" stroke-linecap="round" stroke-linejoin="round"/>
<path d="M20.0667 6.66663C7.42167 6.66663 4.12833 14.66 3.39833 21.055C3.085 23.7916 3.89833 23.7483 6.15333 22.5683C9.6 20.7633 14.1817 19.61 20.0667 19.61C25.9433 19.61 30.44 20.76 33.8467 22.56C36.0967 23.7483 36.9067 23.79 36.6067 21.0533C35.9067 14.66 32.7117 6.66663 20.0667 6.66663Z" stroke="#D2B48C" stroke-width="1.5" stroke-linecap="round" stroke-linejoin="round"/>
<path d="M11.66 20C11.66 15.7866 13.1383 7.60663 21.66 6.66663M25 20C25 16.7683 25.8533 11.2266 30 8.33329" stroke="#D2B48C" stroke-width="1.5" stroke-linecap="round" stroke-linejoin="round"/>
</svg>
