<svg width="40" height="40" viewBox="0 0 40 40" fill="none" xmlns="http://www.w3.org/2000/svg">
<path d="M14.2675 18.75L4.2675 8.75L2.5 10.5175L10.7325 18.75H2.5V20C2.5 24.6413 4.34374 29.0925 7.62563 32.3744C10.9075 35.6563 15.3587 37.5 20 37.5C24.6413 37.5 29.0925 35.6563 32.3744 32.3744C35.6563 29.0925 37.5 24.6413 37.5 20V18.75H14.2675ZM20 35C16.2396 34.995 12.6179 33.5798 9.85031 31.034C7.08276 28.4882 5.37074 24.9969 5.0525 21.25H34.9487C34.6305 24.9971 32.9183 28.4886 30.1505 31.0344C27.3827 33.5803 23.7606 34.9953 20 35Z" fill="#D2B48C"/>
<path d="M27.5 10C26.833 10.0009 26.1705 10.1085 25.5375 10.3188C24.6081 9.0605 23.3972 8.0372 22.0015 7.3307C20.6059 6.6242 19.0643 6.2541 17.5 6.25C15.2784 6.24393 13.119 6.98338 11.3675 8.35L5.5175 2.5L3.75 4.2675L11.3125 11.83L12.1962 10.9462C12.8911 10.2476 13.7177 9.69377 14.6281 9.31677C15.5385 8.93978 16.5146 8.74714 17.5 8.75C18.6263 8.7531 19.7375 9.00899 20.7517 9.49879C21.766 9.98859 22.6573 10.6998 23.36 11.58C23.093 11.8128 22.8463 12.0679 22.6225 12.3425C22.2716 12.7826 21.8259 13.1377 21.3185 13.3815C20.8112 13.6252 20.2553 13.7512 19.6925 13.75H15V16.25H19.6925C20.6298 16.2521 21.5555 16.0426 22.4004 15.637C23.2454 15.2313 23.9879 14.6402 24.5725 13.9075C25.058 13.301 25.7199 12.8603 26.4667 12.6462C27.2134 12.4322 28.0083 12.4553 28.7414 12.7125C29.4744 12.9696 30.1095 13.4481 30.5589 14.0818C31.0083 14.7155 31.2498 15.4731 31.25 16.25H33.75C33.748 14.593 33.0889 13.0044 31.9172 11.8328C30.7456 10.6611 29.157 10.002 27.5 10Z" fill="#D2B48C"/>
</svg>
