<svg width="40" height="40" viewBox="0 0 40 40" fill="none" xmlns="http://www.w3.org/2000/svg">
<path d="M8.33333 15.8334C8.33333 18.1334 11.6917 20.0001 15.8333 20.0001C19.975 20.0001 23.3333 18.1334 23.3333 15.8334C23.3333 13.5334 19.975 11.6667 15.8333 11.6667C11.6917 11.6667 8.33333 13.5334 8.33333 15.8334Z" stroke="#D2B48C" stroke-width="1.5" stroke-linecap="round" stroke-linejoin="round"/>
<path d="M23.3333 27.745C23.3333 29.9117 19.975 31.6667 15.8333 31.6667C11.6917 31.6667 8.33333 29.9117 8.33333 27.745V15.8334M23.3333 15.8334V22.5M15.8333 15.8334H15.8183M3.33333 30L36.6667 18.3334M3.33333 23.3334L8.33333 21.0834M36.6667 8.33337L23.3333 14.3334" stroke="#D2B48C" stroke-width="1.5" stroke-linecap="round" stroke-linejoin="round"/>
</svg>
