<svg width="40" height="40" viewBox="0 0 40 40" fill="none" xmlns="http://www.w3.org/2000/svg">
<path d="M27.9075 27.5C29.5404 26.3534 30.904 24.8649 31.9035 23.1379C32.9029 21.411 33.5143 19.4871 33.695 17.5H6.305C6.48573 19.4871 7.09707 21.411 8.09653 23.1379C9.09599 24.8649 10.4596 26.3534 12.0925 27.5H27.9075ZM11.25 29.945C8.94972 28.4765 7.05668 26.4518 5.74581 24.0582C4.43494 21.6645 3.74853 18.9791 3.75 16.25C3.75 15.9185 3.8817 15.6006 4.11612 15.3661C4.35054 15.1317 4.66848 15 5 15H35C35.3315 15 35.6495 15.1317 35.8839 15.3661C36.1183 15.6006 36.25 15.9185 36.25 16.25C36.2515 18.9791 35.5651 21.6645 34.2542 24.0582C32.9433 26.4518 31.0503 28.4765 28.75 29.945V32.5C28.75 33.1631 28.4866 33.7989 28.0178 34.2678C27.5489 34.7366 26.913 35 26.25 35H13.75C13.087 35 12.4511 34.7366 11.9822 34.2678C11.5134 33.7989 11.25 33.1631 11.25 32.5V29.945ZM19.2675 12.5H15.7325L25.67 2.56252C25.7853 2.44313 25.9232 2.3479 26.0757 2.28239C26.2283 2.21688 26.3923 2.1824 26.5583 2.18096C26.7242 2.17951 26.8888 2.21114 27.0424 2.27399C27.1961 2.33684 27.3356 2.42966 27.453 2.54702C27.5704 2.66439 27.6632 2.80396 27.726 2.95758C27.7889 3.1112 27.8205 3.2758 27.8191 3.44177C27.8176 3.60774 27.7831 3.77177 27.7176 3.92427C27.6521 4.07678 27.5569 4.21471 27.4375 4.33002L19.2675 12.5ZM26.585 12.5H21.585L32.12 6.41752C32.4069 6.25437 32.7468 6.21135 33.0653 6.29783C33.3839 6.38432 33.6553 6.59329 33.8203 6.87915C33.9854 7.16501 34.0307 7.50455 33.9463 7.82367C33.8619 8.14279 33.6548 8.41558 33.37 8.58252L26.585 12.5ZM13.75 30V32.5H26.25V30H13.75Z" fill="#D2B48C"/>
</svg>
