<svg width="1004" height="311" viewBox="0 0 1004 311" fill="none" xmlns="http://www.w3.org/2000/svg">
<path d="M997.334 291.667C997.334 296.67 997.334 299.173 995.869 300.727C992.39 304.418 975.194 303.977 972.132 300.727C970.667 299.173 970.667 296.67 970.667 291.667" stroke="#D2B48C" stroke-width="1.5" stroke-linecap="round" stroke-linejoin="round"/>
<path d="M984.067 276.667C971.422 276.667 968.129 284.66 967.399 291.055C967.085 293.792 967.899 293.748 970.154 292.568C973.6 290.763 978.182 289.61 984.067 289.61C989.944 289.61 994.44 290.76 997.847 292.56C1000.1 293.748 1000.91 293.79 1000.61 291.053C999.907 284.66 996.712 276.667 984.067 276.667Z" stroke="#D2B48C" stroke-width="1.5" stroke-linecap="round" stroke-linejoin="round"/>
<path d="M975.66 290C975.66 285.787 977.138 277.607 985.66 276.667M989 290C989 286.768 989.853 281.227 994 278.333" stroke="#D2B48C" stroke-width="1.5" stroke-linecap="round" stroke-linejoin="round"/>
<path d="M940 183C940 181.895 939.561 180.835 938.779 180.054C937.998 179.272 936.938 178.833 935.833 178.833C934.728 178.833 933.668 179.272 932.887 180.054C932.105 180.835 931.666 181.895 931.666 183M920 168V183M924.166 167.167V175.5M928.333 166.333V175.5M916.666 170.5L920 169.98M943.333 166.333L932.5 168.027M916.666 174.667L920 174.458M943.333 173L932.5 173.677M918.185 183H941.816C944.486 183 945.466 183.617 944.8 186.303C943.623 191.042 940.295 192.218 937.218 195.31C936.471 196.06 937.635 197.172 937.635 197.998C937.635 199.555 936.156 199.667 934.976 199.667H925.026C923.846 199.667 922.366 199.555 922.368 198C922.368 197.19 923.496 196.027 922.785 195.31C919.708 192.218 916.38 191.042 915.203 186.303C914.536 183.618 915.516 183 918.186 183" stroke="#D2B48C" stroke-width="1.5" stroke-linecap="round" stroke-linejoin="round"/>
<path d="M823.333 74.8333C823.333 77.1333 826.691 79 830.833 79C834.975 79 838.333 77.1333 838.333 74.8333C838.333 72.5333 834.975 70.6667 830.833 70.6667C826.691 70.6667 823.333 72.5333 823.333 74.8333Z" stroke="#D2B48C" stroke-width="1.5" stroke-linecap="round" stroke-linejoin="round"/>
<path d="M838.333 86.745C838.333 88.9117 834.975 90.6667 830.833 90.6667C826.691 90.6667 823.333 88.9117 823.333 86.745V74.8333M838.333 74.8333V81.5M830.833 74.8333H830.818M818.333 89L851.666 77.3333M818.333 82.3333L823.333 80.0833M851.666 67.3333L838.333 73.3333" stroke="#D2B48C" stroke-width="1.5" stroke-linecap="round" stroke-linejoin="round"/>
<path d="M163.267 77.75L153.268 67.75L151.5 69.5175L159.733 77.75H151.5V79C151.5 83.6413 153.344 88.0925 156.626 91.3744C159.908 94.6563 164.359 96.5 169 96.5C173.641 96.5 178.092 94.6563 181.374 91.3744C184.656 88.0925 186.5 83.6413 186.5 79V77.75H163.267ZM169 94C165.24 93.995 161.618 92.5798 158.85 90.034C156.083 87.4882 154.371 83.9969 154.052 80.25H183.949C183.63 83.9971 181.918 87.4886 179.15 90.0344C176.383 92.5803 172.761 93.9953 169 94Z" fill="#D2B48C"/>
<path d="M176.5 69C175.833 69.0009 175.17 69.1085 174.538 69.3188C173.608 68.0605 172.397 67.0372 171.002 66.3307C169.606 65.6242 168.064 65.2541 166.5 65.25C164.278 65.2439 162.119 65.9834 160.367 67.35L154.518 61.5L152.75 63.2675L160.312 70.83L161.196 69.9462C161.891 69.2476 162.718 68.6938 163.628 68.3168C164.538 67.9398 165.515 67.7471 166.5 67.75C167.626 67.7531 168.738 68.009 169.752 68.4988C170.766 68.9886 171.657 69.6998 172.36 70.58C172.093 70.8128 171.846 71.0679 171.622 71.3425C171.272 71.7826 170.826 72.1377 170.319 72.3815C169.811 72.6252 169.255 72.7512 168.692 72.75H164V75.25H168.692C169.63 75.2521 170.555 75.0426 171.4 74.637C172.245 74.2313 172.988 73.6402 173.573 72.9075C174.058 72.301 174.72 71.8603 175.467 71.6462C176.213 71.4322 177.008 71.4553 177.741 71.7125C178.474 71.9696 179.11 72.4481 179.559 73.0818C180.008 73.7155 180.25 74.4731 180.25 75.25H182.75C182.748 73.593 182.089 72.0044 180.917 70.8328C179.746 69.6611 178.157 69.002 176.5 69Z" fill="#D2B48C"/>
<path d="M378.908 27.5C380.54 26.3534 381.904 24.8648 382.903 23.1379C383.903 21.411 384.514 19.4871 384.695 17.5H357.305C357.486 19.4871 358.097 21.411 359.097 23.1379C360.096 24.8648 361.46 26.3534 363.093 27.5H378.908ZM362.25 29.945C359.95 28.4765 358.057 26.4518 356.746 24.0582C355.435 21.6645 354.749 18.9791 354.75 16.25C354.75 15.9185 354.882 15.6005 355.116 15.3661C355.351 15.1317 355.668 15 356 15H386C386.332 15 386.649 15.1317 386.884 15.3661C387.118 15.6005 387.25 15.9185 387.25 16.25C387.251 18.9791 386.565 21.6645 385.254 24.0582C383.943 26.4518 382.05 28.4765 379.75 29.945V32.5C379.75 33.163 379.487 33.7989 379.018 34.2678C378.549 34.7366 377.913 35 377.25 35H364.75C364.087 35 363.451 34.7366 362.982 34.2678C362.513 33.7989 362.25 33.163 362.25 32.5V29.945ZM370.268 12.5H366.733L376.67 2.5625C376.785 2.44311 376.923 2.34788 377.076 2.28237C377.228 2.21686 377.392 2.18238 377.558 2.18094C377.724 2.17949 377.889 2.21112 378.042 2.27397C378.196 2.33682 378.336 2.42964 378.453 2.54701C378.57 2.66437 378.663 2.80394 378.726 2.95756C378.789 3.11118 378.821 3.27578 378.819 3.44175C378.818 3.60773 378.783 3.77175 378.718 3.92426C378.652 4.07676 378.557 4.21469 378.438 4.33L370.268 12.5ZM377.585 12.5H372.585L383.12 6.4175C383.407 6.25435 383.747 6.21133 384.065 6.29781C384.384 6.3843 384.655 6.59327 384.82 6.87913C384.985 7.16499 385.031 7.50453 384.946 7.82365C384.862 8.14277 384.655 8.41556 384.37 8.5825L377.585 12.5ZM364.75 30V32.5H377.25V30H364.75Z" fill="#D2B48C"/>
<path d="M630.666 15C630.666 15.8841 631.017 16.7319 631.642 17.357C632.267 17.9821 633.115 18.3333 633.999 18.3333C634.883 18.3333 635.731 17.9821 636.356 17.357C636.981 16.7319 637.333 15.8841 637.333 15C637.333 14.116 636.981 13.2681 636.356 12.643C635.731 12.0179 634.883 11.6667 633.999 11.6667C633.115 11.6667 632.267 12.0179 631.642 12.643C631.017 13.2681 630.666 14.116 630.666 15Z" stroke="#D2B48C" stroke-width="1.5" stroke-linecap="round" stroke-linejoin="round"/>
<path d="M628.166 3.33334L621.561 27.3533M619 36.6667L620.375 31.6667M645.666 20.8333L612.333 30M625.666 15C625.666 17.2101 626.544 19.3298 628.107 20.8926C629.67 22.4554 631.79 23.3333 634 23.3333C636.21 23.3333 638.329 22.4554 639.892 20.8926C641.455 19.3298 642.333 17.2101 642.333 15C642.333 12.7899 641.455 10.6702 639.892 9.10745C638.329 7.54464 636.21 6.66667 634 6.66667C631.79 6.66667 629.67 7.54464 628.107 9.10745C626.544 10.6702 625.666 12.7899 625.666 15Z" stroke="#D2B48C" stroke-width="1.5" stroke-linecap="round" stroke-linejoin="round"/>
<path d="M57.333 193V166.333M90.6663 193V166.333M63.9997 181.333C63.9997 176.667 67.6663 173 72.333 173H75.6663C80.333 173 83.9997 176.667 83.9997 181.333V191.333C83.9997 196 80.333 199.667 75.6663 199.667H72.333C67.6663 199.667 63.9997 196 63.9997 191.333V181.333Z" stroke="#D2B48C" stroke-width="2" stroke-linecap="round" stroke-linejoin="round"/>
<path d="M84 184.667C84 189.333 80.3333 193 75.6667 193H72.3333C67.6667 193 64 189.333 64 184.667" stroke="#D2B48C" stroke-width="2" stroke-linecap="round" stroke-linejoin="round"/>
<path d="M72.3327 186.333C71.3327 186.333 70.666 185.667 70.666 184.667V181.333C70.666 180.333 71.3327 179.667 72.3327 179.667H75.666C76.666 179.667 77.3327 180.333 77.3327 181.333V184.667C77.3327 185.667 76.666 186.333 75.666 186.333H72.3327Z" stroke="#D2B48C" stroke-width="2" stroke-linecap="round" stroke-linejoin="round"/>
<path d="M35 288.813H5C4.75136 288.813 4.5129 288.911 4.33709 289.087C4.16127 289.263 4.0625 289.501 4.0625 289.75C4.06808 292.698 4.8882 295.586 6.43231 298.097C7.97642 300.608 10.1844 302.643 12.8125 303.978V304.75C12.8125 305.33 13.043 305.887 13.4532 306.297C13.8634 306.707 14.4198 306.938 15 306.938H25C25.5802 306.938 26.1366 306.707 26.5468 306.297C26.957 305.887 27.1875 305.33 27.1875 304.75V303.978C29.8156 302.643 32.0236 300.608 33.5677 298.097C35.1118 295.586 35.9319 292.698 35.9375 289.75C35.9375 289.501 35.8387 289.263 35.6629 289.087C35.4871 288.911 35.2486 288.813 35 288.813ZM25.8594 302.538C25.6963 302.612 25.5581 302.732 25.4612 302.883C25.3642 303.034 25.3126 303.21 25.3125 303.389V304.75C25.3125 304.833 25.2796 304.912 25.221 304.971C25.1624 305.03 25.0829 305.063 25 305.063H15C14.9171 305.063 14.8376 305.03 14.779 304.971C14.7204 304.912 14.6875 304.833 14.6875 304.75V303.389C14.6874 303.21 14.6358 303.034 14.5388 302.883C14.4419 302.732 14.3037 302.612 14.1406 302.538C11.8408 301.477 9.86867 299.817 8.4309 297.732C6.99314 295.647 6.1427 293.214 5.96875 290.688H34.0312C33.8573 293.214 33.0069 295.647 31.5691 297.732C30.1313 299.817 28.1592 301.477 25.8594 302.538ZM13.0188 279.788C13.8078 278.806 14.1766 277.955 14.0312 277.444C13.9188 277.048 13.4625 276.886 13.4578 276.884C13.2505 276.812 13.0753 276.668 12.9629 276.479C12.8505 276.291 12.8079 276.068 12.8427 275.851C12.8775 275.634 12.9874 275.437 13.1533 275.292C13.3191 275.148 13.5303 275.067 13.75 275.063C13.8443 275.062 13.9382 275.076 14.0281 275.105C14.1703 275.148 15.4188 275.573 15.8219 276.892C16.175 278.047 15.7234 279.416 14.4812 280.963C13.6922 281.944 13.3234 282.795 13.4688 283.306C13.5812 283.702 14.0375 283.864 14.0422 283.866C14.2495 283.938 14.4247 284.082 14.5371 284.271C14.6495 284.459 14.6921 284.682 14.6573 284.899C14.6225 285.116 14.5126 285.313 14.3467 285.458C14.1809 285.602 13.9697 285.683 13.75 285.688C13.6557 285.688 13.5618 285.674 13.4719 285.645C13.3297 285.602 12.0812 285.177 11.6781 283.858C11.325 282.703 11.7766 281.334 13.0188 279.788ZM19.2688 279.788C20.0578 278.806 20.4266 277.955 20.2812 277.444C20.1688 277.048 19.7125 276.886 19.7078 276.884C19.5005 276.812 19.3253 276.668 19.2129 276.479C19.1005 276.291 19.0579 276.068 19.0927 275.851C19.1275 275.634 19.2374 275.437 19.4033 275.292C19.5691 275.148 19.7803 275.067 20 275.063C20.0943 275.062 20.1882 275.076 20.2781 275.105C20.4203 275.148 21.6687 275.573 22.0719 276.892C22.425 278.047 21.9734 279.416 20.7312 280.963C19.9422 281.944 19.5734 282.795 19.7188 283.306C19.8312 283.702 20.2875 283.864 20.2922 283.866C20.4995 283.938 20.6747 284.082 20.7871 284.271C20.8995 284.459 20.9421 284.682 20.9073 284.899C20.8725 285.116 20.7626 285.313 20.5967 285.458C20.4309 285.602 20.2197 285.683 20 285.688C19.9057 285.688 19.8118 285.674 19.7219 285.645C19.5797 285.602 18.3312 285.177 17.9281 283.858C17.575 282.703 18.0266 281.334 19.2688 279.788ZM25.5188 279.788C26.3078 278.806 26.6766 277.955 26.5312 277.444C26.4188 277.048 25.9625 276.886 25.9578 276.884C25.7505 276.812 25.5753 276.668 25.4629 276.479C25.3505 276.291 25.3079 276.068 25.3427 275.851C25.3775 275.634 25.4874 275.437 25.6533 275.292C25.8191 275.148 26.0303 275.067 26.25 275.063C26.3443 275.062 26.4382 275.076 26.5281 275.105C26.6703 275.148 27.9187 275.573 28.3219 276.892C28.675 278.047 28.2234 279.416 26.9812 280.963C26.1922 281.944 25.8234 282.795 25.9688 283.306C26.0812 283.702 26.5375 283.864 26.5422 283.866C26.7495 283.938 26.9247 284.082 27.0371 284.271C27.1495 284.459 27.1921 284.682 27.1573 284.899C27.1225 285.116 27.0126 285.313 26.8467 285.458C26.6809 285.602 26.4697 285.683 26.25 285.688C26.1557 285.688 26.0618 285.674 25.9719 285.645C25.8297 285.602 24.5813 285.177 24.1781 283.858C23.825 282.703 24.2766 281.334 25.5188 279.788Z" fill="#D2B48C"/>
<path d="M252.145 157V127.264H262.519C275.077 127.264 278.143 136.63 278.143 142.132C278.143 149.734 272.473 157 261.847 157H252.145ZM256.177 131.044V153.22H261.259C268.063 153.22 273.859 149.482 273.859 142.132C273.859 138.352 271.885 131.044 262.225 131.044H256.177ZM283.948 157V127.264H287.98V157H283.948ZM293.201 153.64L296.519 150.784C297.947 152.968 300.425 153.976 302.819 153.976C305.465 153.976 308.741 152.296 308.741 149.02C308.741 142.174 294.083 146.416 294.083 134.824C294.083 131.338 297.023 126.508 304.163 126.508C307.397 126.508 310.505 127.18 312.731 129.91L309.455 132.892C308.447 131.338 306.473 130.288 304.163 130.288C299.711 130.288 298.367 132.976 298.367 134.824C298.367 142.342 313.025 137.848 313.025 148.558C313.025 154.312 308.405 157.756 302.693 157.756C298.871 157.756 295.217 156.454 293.201 153.64ZM343.041 131.128L339.681 133.69C338.001 131.506 335.229 130.288 332.499 130.288C325.821 130.288 321.411 135.622 321.411 142.384C321.411 148.642 325.569 153.976 332.499 153.976C335.901 153.976 338.505 152.464 340.269 149.986L343.671 152.548C342.789 153.766 339.219 157.756 332.415 157.756C322.965 157.756 317.127 149.86 317.127 142.384C317.127 133.144 323.469 126.508 332.625 126.508C336.531 126.508 340.647 127.978 343.041 131.128ZM362.198 157.756C353.126 157.756 346.7 150.952 346.7 142.132C346.7 133.312 353.126 126.508 362.198 126.508C371.27 126.508 377.696 133.312 377.696 142.132C377.696 150.952 371.27 157.756 362.198 157.756ZM362.198 153.976C369.002 153.976 373.412 148.642 373.412 142.132C373.412 135.622 369.002 130.288 362.198 130.288C355.394 130.288 350.984 135.622 350.984 142.132C350.984 148.642 355.394 153.976 362.198 153.976ZM390.885 157L379.419 127.264H384.081L392.817 151.456H392.901L401.973 127.264H406.383L394.665 157H390.885ZM409.948 157V127.264H429.142V131.044H413.98V139.906H428.092V143.686H413.98V153.22H429.898V157H409.948ZM435.624 157V127.264H446.082C453.684 127.264 455.616 131.842 455.616 135.58C455.616 139.36 452.802 142.93 448.308 143.434L456.75 157H451.71L444.15 143.896H439.656V157H435.624ZM439.656 130.792V140.368H444.948C448.14 140.368 451.332 139.612 451.332 135.58C451.332 131.548 448.14 130.792 444.948 130.792H439.656ZM486.639 157.756C477.567 157.756 471.141 150.952 471.141 142.132C471.141 133.312 477.567 126.508 486.639 126.508C495.711 126.508 502.137 133.312 502.137 142.132C502.137 150.952 495.711 157.756 486.639 157.756ZM486.639 153.976C493.443 153.976 497.853 148.642 497.853 142.132C497.853 135.622 493.443 130.288 486.639 130.288C479.835 130.288 475.425 135.622 475.425 142.132C475.425 148.642 479.835 153.976 486.639 153.976ZM507.388 127.264H511.42V145.492C511.42 149.188 513.268 153.976 518.896 153.976C524.524 153.976 526.372 149.188 526.372 145.492V127.264H530.404V146.122C530.404 153.01 525.406 157.756 518.896 157.756C512.386 157.756 507.388 153.01 507.388 146.122V127.264ZM537.507 157V127.264H547.965C555.567 127.264 557.499 131.842 557.499 135.58C557.499 139.36 554.685 142.93 550.191 143.434L558.633 157H553.593L546.033 143.896H541.539V157H537.507ZM541.539 130.792V140.368H546.831C550.023 140.368 553.215 139.612 553.215 135.58C553.215 131.548 550.023 130.792 546.831 130.792H541.539Z" fill="white"/>
<path d="M574.872 157V127.264H593.562V131.044H578.904V140.368H592.554V144.148H578.904V157H574.872ZM598.989 157V127.264H603.021V153.22H616.671V157H598.989ZM616.988 157L630.092 127.264H633.746L646.472 157H641.768L638.786 149.65H624.632L621.692 157H616.988ZM626.06 146.122H637.316L631.772 132.472H631.688L626.06 146.122ZM655.805 157L644.339 127.264H649.001L657.737 151.456H657.821L666.893 127.264H671.303L659.585 157H655.805ZM688.518 157.756C679.446 157.756 673.02 150.952 673.02 142.132C673.02 133.312 679.446 126.508 688.518 126.508C697.59 126.508 704.016 133.312 704.016 142.132C704.016 150.952 697.59 157.756 688.518 157.756ZM688.518 153.976C695.322 153.976 699.732 148.642 699.732 142.132C699.732 135.622 695.322 130.288 688.518 130.288C681.714 130.288 677.304 135.622 677.304 142.132C677.304 148.642 681.714 153.976 688.518 153.976ZM709.813 157V127.264H720.271C727.873 127.264 729.805 131.842 729.805 135.58C729.805 139.36 726.991 142.93 722.497 143.434L730.939 157H725.899L718.339 143.896H713.845V157H709.813ZM713.845 130.792V140.368H719.137C722.329 140.368 725.521 139.612 725.521 135.58C725.521 131.548 722.329 130.792 719.137 130.792H713.845ZM733.053 153.64L736.371 150.784C737.799 152.968 740.277 153.976 742.671 153.976C745.317 153.976 748.593 152.296 748.593 149.02C748.593 142.174 733.935 146.416 733.935 134.824C733.935 131.338 736.875 126.508 744.015 126.508C747.249 126.508 750.357 127.18 752.583 129.91L749.307 132.892C748.299 131.338 746.325 130.288 744.015 130.288C739.563 130.288 738.219 132.976 738.219 134.824C738.219 142.342 752.877 137.848 752.877 148.558C752.877 154.312 748.257 157.756 742.545 157.756C738.723 157.756 735.069 156.454 733.053 153.64Z" fill="#FB4444"/>
<path d="M162.001 229V214.84H171.141V216.64H163.921V220.86H170.641V222.66H163.921V227.2H171.501V229H162.001ZM172.558 229L176.398 223.94L173.038 219.52H175.358L177.658 222.88L179.918 219.52H182.098L178.858 223.94L182.698 229H180.378L177.577 225.02L174.778 229H172.558ZM184.199 234.64V219.52H185.999V220.88H186.039C186.739 219.86 188.059 219.28 189.339 219.28C192.279 219.28 194.159 221.46 194.159 224.26C194.159 227.1 192.259 229.24 189.339 229.24C187.979 229.24 186.679 228.62 186.039 227.64H185.999V234.64H184.199ZM189.119 220.96C187.199 220.96 185.999 222.34 185.999 224.26C185.999 226.18 187.199 227.56 189.119 227.56C191.039 227.56 192.239 226.18 192.239 224.26C192.239 222.34 191.039 220.96 189.119 220.96ZM196.595 229V213.88H198.395V229H196.595ZM202.75 224.26C202.75 226.18 203.95 227.56 205.87 227.56C207.79 227.56 208.99 226.18 208.99 224.26C208.99 222.34 207.79 220.96 205.87 220.96C203.95 220.96 202.75 222.34 202.75 224.26ZM200.83 224.26C200.83 221.5 203.05 219.28 205.87 219.28C208.69 219.28 210.91 221.5 210.91 224.26C210.91 227.02 208.69 229.24 205.87 229.24C203.05 229.24 200.83 227.02 200.83 224.26ZM213.195 229V219.52H214.995V220.98H215.035C215.495 219.98 216.695 219.28 217.875 219.28C218.155 219.28 218.435 219.32 218.675 219.4L218.595 221.34C218.295 221.26 217.995 221.2 217.715 221.2C215.955 221.2 214.995 222.16 214.995 224.24V229H213.195ZM229.236 224.92H221.636C221.636 226.58 223.176 227.68 224.836 227.68C225.936 227.68 226.736 227.12 227.436 226.26L228.796 227.3C227.796 228.6 226.416 229.24 224.596 229.24C221.596 229.24 219.716 227.08 219.716 224.26C219.716 221.42 221.776 219.28 224.616 219.28C227.956 219.28 229.236 221.84 229.236 224.28V224.92ZM221.636 223.48H227.316C227.276 221.9 226.396 220.72 224.576 220.72C222.796 220.72 221.636 222.22 221.636 223.48ZM238.135 221.8L237.055 220.68C238.055 219.74 239.495 219.28 240.815 219.28C243.615 219.28 244.775 220.8 244.775 222.44V227.28C244.775 227.94 244.795 228.5 244.855 229H243.255C243.215 228.52 243.195 228.04 243.195 227.56H243.155C242.355 228.78 241.275 229.24 239.835 229.24C238.075 229.24 236.555 228.24 236.555 226.4C236.555 223.96 238.895 223.12 241.775 223.12H243.095V222.72C243.095 221.74 242.375 220.72 240.835 220.72C239.455 220.72 238.795 221.3 238.135 221.8ZM243.095 224.44H242.135C240.435 224.44 238.355 224.74 238.355 226.26C238.355 227.34 239.155 227.8 240.395 227.8C242.395 227.8 243.095 226.32 243.095 225.04V224.44ZM255.733 229L251.873 219.52H253.953L256.793 226.78L259.513 219.52H261.433L257.713 229H255.733ZM264.163 221.8L263.083 220.68C264.083 219.74 265.523 219.28 266.843 219.28C269.643 219.28 270.803 220.8 270.803 222.44V227.28C270.803 227.94 270.823 228.5 270.883 229H269.283C269.243 228.52 269.223 228.04 269.223 227.56H269.183C268.383 228.78 267.303 229.24 265.863 229.24C264.103 229.24 262.583 228.24 262.583 226.4C262.583 223.96 264.923 223.12 267.803 223.12H269.123V222.72C269.123 221.74 268.403 220.72 266.863 220.72C265.483 220.72 264.823 221.3 264.163 221.8ZM269.123 224.44H268.163C266.463 224.44 264.383 224.74 264.383 226.26C264.383 227.34 265.183 227.8 266.423 227.8C268.423 227.8 269.123 226.32 269.123 225.04V224.44ZM273.444 229V219.52H275.244V220.98H275.284C275.744 219.98 276.944 219.28 278.124 219.28C278.404 219.28 278.684 219.32 278.924 219.4L278.844 221.34C278.544 221.26 278.244 221.2 277.964 221.2C276.204 221.2 275.244 222.16 275.244 224.24V229H273.444ZM281.016 229V219.52H282.816V229H281.016ZM280.596 216.12C280.596 215.4 281.196 214.8 281.916 214.8C282.636 214.8 283.236 215.4 283.236 216.12C283.236 216.84 282.636 217.44 281.916 217.44C281.196 217.44 280.596 216.84 280.596 216.12ZM294.671 224.92H287.071C287.071 226.58 288.611 227.68 290.271 227.68C291.371 227.68 292.171 227.12 292.871 226.26L294.231 227.3C293.231 228.6 291.851 229.24 290.031 229.24C287.031 229.24 285.151 227.08 285.151 224.26C285.151 221.42 287.211 219.28 290.051 219.28C293.391 219.28 294.671 221.84 294.671 224.28V224.92ZM287.071 223.48H292.751C292.711 221.9 291.831 220.72 290.011 220.72C288.231 220.72 287.071 222.22 287.071 223.48ZM301.934 219.52V221.08H299.354V225.38C299.354 226.44 299.354 227.56 300.714 227.56C301.134 227.56 301.634 227.5 301.994 227.28V228.92C301.574 229.16 300.734 229.24 300.374 229.24C297.594 229.24 297.554 227.54 297.554 226.02V221.08H295.474V219.52H297.554V216.86H299.354V219.52H301.934ZM307.087 229.06L303.147 219.52H305.227L308.047 226.92H308.087L310.767 219.52H312.707L308.207 231.04C307.567 232.68 306.947 233.8 304.967 233.8C304.427 233.8 303.867 233.74 303.367 233.54L303.587 231.9C303.927 232.04 304.307 232.12 304.667 232.12C305.807 232.12 306.147 231.5 306.507 230.56L307.087 229.06ZM321.373 224.26C321.373 226.18 322.573 227.56 324.493 227.56C326.413 227.56 327.613 226.18 327.613 224.26C327.613 222.34 326.413 220.96 324.493 220.96C322.573 220.96 321.373 222.34 321.373 224.26ZM319.453 224.26C319.453 221.5 321.673 219.28 324.493 219.28C327.313 219.28 329.533 221.5 329.533 224.26C329.533 227.02 327.313 229.24 324.493 229.24C321.673 229.24 319.453 227.02 319.453 224.26ZM332.518 229V221.08H330.478V219.52H332.518V217.4C332.518 214.88 333.398 213.64 335.758 213.64C336.158 213.64 336.598 213.66 337.098 213.78L336.898 215.38C336.558 215.24 336.238 215.2 335.878 215.2C334.558 215.2 334.338 216.02 334.338 217.34V219.52H336.478V221.08H334.318V229H332.518ZM349.185 219.52V221.08H346.605V225.38C346.605 226.44 346.605 227.56 347.965 227.56C348.385 227.56 348.885 227.5 349.245 227.28V228.92C348.825 229.16 347.985 229.24 347.625 229.24C344.845 229.24 344.805 227.54 344.805 226.02V221.08H342.725V219.52H344.805V216.86H346.605V219.52H349.185ZM351.537 229V219.52H353.337V220.98H353.377C353.837 219.98 355.037 219.28 356.217 219.28C356.497 219.28 356.777 219.32 357.017 219.4L356.937 221.34C356.637 221.26 356.337 221.2 356.057 221.2C354.297 221.2 353.337 222.16 353.337 224.24V229H351.537ZM360.089 221.8L359.009 220.68C360.009 219.74 361.449 219.28 362.769 219.28C365.569 219.28 366.729 220.8 366.729 222.44V227.28C366.729 227.94 366.749 228.5 366.809 229H365.209C365.169 228.52 365.149 228.04 365.149 227.56H365.109C364.309 228.78 363.229 229.24 361.789 229.24C360.029 229.24 358.509 228.24 358.509 226.4C358.509 223.96 360.849 223.12 363.729 223.12H365.049V222.72C365.049 221.74 364.329 220.72 362.789 220.72C361.409 220.72 360.749 221.3 360.089 221.8ZM365.049 224.44H364.089C362.389 224.44 360.309 224.74 360.309 226.26C360.309 227.34 361.109 227.8 362.349 227.8C364.349 227.8 365.049 226.32 365.049 225.04V224.44ZM378.87 213.88V229H377.07V227.64H377.03C376.33 228.66 375.01 229.24 373.73 229.24C370.79 229.24 368.91 227.06 368.91 224.26C368.91 221.42 370.81 219.28 373.73 219.28C375.09 219.28 376.39 219.9 377.03 220.88H377.07V213.88H378.87ZM373.95 227.56C375.87 227.56 377.07 226.18 377.07 224.26C377.07 222.34 375.87 220.96 373.95 220.96C372.03 220.96 370.83 222.34 370.83 224.26C370.83 226.18 372.03 227.56 373.95 227.56ZM381.767 229V219.52H383.567V229H381.767ZM381.347 216.12C381.347 215.4 381.947 214.8 382.667 214.8C383.387 214.8 383.987 215.4 383.987 216.12C383.987 216.84 383.387 217.44 382.667 217.44C381.947 217.44 381.347 216.84 381.347 216.12ZM391.542 219.52V221.08H388.962V225.38C388.962 226.44 388.962 227.56 390.322 227.56C390.742 227.56 391.242 227.5 391.602 227.28V228.92C391.182 229.16 390.342 229.24 389.982 229.24C387.202 229.24 387.162 227.54 387.162 226.02V221.08H385.082V219.52H387.162V216.86H388.962V219.52H391.542ZM394.034 229V219.52H395.834V229H394.034ZM393.614 216.12C393.614 215.4 394.214 214.8 394.934 214.8C395.654 214.8 396.254 215.4 396.254 216.12C396.254 216.84 395.654 217.44 394.934 217.44C394.214 217.44 393.614 216.84 393.614 216.12ZM400.189 224.26C400.189 226.18 401.389 227.56 403.309 227.56C405.229 227.56 406.429 226.18 406.429 224.26C406.429 222.34 405.229 220.96 403.309 220.96C401.389 220.96 400.189 222.34 400.189 224.26ZM398.269 224.26C398.269 221.5 400.489 219.28 403.309 219.28C406.129 219.28 408.349 221.5 408.349 224.26C408.349 227.02 406.129 229.24 403.309 229.24C400.489 229.24 398.269 227.02 398.269 224.26ZM410.634 229V219.52H412.434V220.98H412.474C412.934 219.98 414.134 219.28 415.594 219.28C417.434 219.28 419.034 220.38 419.034 222.9V229H417.234V223.4C417.234 221.62 416.214 220.96 415.074 220.96C413.574 220.96 412.434 221.92 412.434 224.12V229H410.634ZM422.897 221.8L421.817 220.68C422.817 219.74 424.257 219.28 425.577 219.28C428.377 219.28 429.537 220.8 429.537 222.44V227.28C429.537 227.94 429.557 228.5 429.617 229H428.017C427.977 228.52 427.957 228.04 427.957 227.56H427.917C427.117 228.78 426.037 229.24 424.597 229.24C422.837 229.24 421.317 228.24 421.317 226.4C421.317 223.96 423.657 223.12 426.537 223.12H427.857V222.72C427.857 221.74 427.137 220.72 425.597 220.72C424.217 220.72 423.557 221.3 422.897 221.8ZM427.857 224.44H426.897C425.197 224.44 423.117 224.74 423.117 226.26C423.117 227.34 423.917 227.8 425.157 227.8C427.157 227.8 427.857 226.32 427.857 225.04V224.44ZM432.318 229V213.88H434.118V229H432.318ZM447.489 224.34V214.84H449.409V224.96C449.409 228.52 446.849 229.36 445.269 229.36C443.269 229.36 441.809 228.34 441.429 226.26L443.309 225.84C443.529 226.9 444.209 227.56 445.269 227.56C447.169 227.56 447.489 225.94 447.489 224.34ZM453.407 221.8L452.327 220.68C453.327 219.74 454.767 219.28 456.087 219.28C458.887 219.28 460.047 220.8 460.047 222.44V227.28C460.047 227.94 460.067 228.5 460.127 229H458.527C458.487 228.52 458.467 228.04 458.467 227.56H458.427C457.627 228.78 456.547 229.24 455.107 229.24C453.347 229.24 451.827 228.24 451.827 226.4C451.827 223.96 454.167 223.12 457.047 223.12H458.367V222.72C458.367 221.74 457.647 220.72 456.107 220.72C454.727 220.72 454.067 221.3 453.407 221.8ZM458.367 224.44H457.407C455.707 224.44 453.627 224.74 453.627 226.26C453.627 227.34 454.427 227.8 455.667 227.8C457.667 227.8 458.367 226.32 458.367 225.04V224.44ZM462.689 234.64V219.52H464.489V220.88H464.529C465.229 219.86 466.549 219.28 467.829 219.28C470.769 219.28 472.649 221.46 472.649 224.26C472.649 227.1 470.749 229.24 467.829 229.24C466.469 229.24 465.169 228.62 464.529 227.64H464.489V234.64H462.689ZM467.609 220.96C465.689 220.96 464.489 222.34 464.489 224.26C464.489 226.18 465.689 227.56 467.609 227.56C469.529 227.56 470.729 226.18 470.729 224.26C470.729 222.34 469.529 220.96 467.609 220.96ZM476.065 221.8L474.985 220.68C475.985 219.74 477.425 219.28 478.745 219.28C481.545 219.28 482.705 220.8 482.705 222.44V227.28C482.705 227.94 482.725 228.5 482.785 229H481.185C481.145 228.52 481.125 228.04 481.125 227.56H481.085C480.285 228.78 479.205 229.24 477.765 229.24C476.005 229.24 474.485 228.24 474.485 226.4C474.485 223.96 476.825 223.12 479.705 223.12H481.025V222.72C481.025 221.74 480.305 220.72 478.765 220.72C477.385 220.72 476.725 221.3 476.065 221.8ZM481.025 224.44H480.065C478.365 224.44 476.285 224.74 476.285 226.26C476.285 227.34 477.085 227.8 478.325 227.8C480.325 227.8 481.025 226.32 481.025 225.04V224.44ZM485.346 229V219.52H487.146V220.98H487.186C487.646 219.98 488.846 219.28 490.306 219.28C492.146 219.28 493.746 220.38 493.746 222.9V229H491.946V223.4C491.946 221.62 490.926 220.96 489.786 220.96C488.286 220.96 487.146 221.92 487.146 224.12V229H485.346ZM505.45 224.92H497.85C497.85 226.58 499.39 227.68 501.05 227.68C502.15 227.68 502.95 227.12 503.65 226.26L505.01 227.3C504.01 228.6 502.63 229.24 500.81 229.24C497.81 229.24 495.93 227.08 495.93 224.26C495.93 221.42 497.99 219.28 500.83 219.28C504.17 219.28 505.45 221.84 505.45 224.28V224.92ZM497.85 223.48H503.53C503.49 221.9 502.61 220.72 500.79 220.72C499.01 220.72 497.85 222.22 497.85 223.48ZM514.073 220.84L512.673 221.9C512.253 221.38 511.633 220.96 510.733 220.96C509.893 220.96 509.153 221.34 509.153 222.02C509.153 223.16 510.773 223.32 511.573 223.5C513.133 223.88 514.333 224.48 514.333 226.26C514.333 228.4 512.373 229.24 510.493 229.24C508.933 229.24 507.773 228.84 506.833 227.56L508.193 226.44C508.773 227.02 509.453 227.56 510.493 227.56C511.413 227.56 512.413 227.18 512.413 226.36C512.413 225.28 510.913 225.08 510.133 224.9C508.593 224.52 507.233 224.02 507.233 222.2C507.233 220.22 509.053 219.28 510.833 219.28C512.093 219.28 513.393 219.72 514.073 220.84ZM525.51 224.92H517.91C517.91 226.58 519.45 227.68 521.11 227.68C522.21 227.68 523.01 227.12 523.71 226.26L525.07 227.3C524.07 228.6 522.69 229.24 520.87 229.24C517.87 229.24 515.99 227.08 515.99 224.26C515.99 221.42 518.05 219.28 520.89 219.28C524.23 219.28 525.51 221.84 525.51 224.28V224.92ZM517.91 223.48H523.59C523.55 221.9 522.67 220.72 520.85 220.72C519.07 220.72 517.91 222.22 517.91 223.48ZM539.729 220.84L538.329 221.9C537.909 221.38 537.289 220.96 536.389 220.96C535.549 220.96 534.809 221.34 534.809 222.02C534.809 223.16 536.429 223.32 537.229 223.5C538.789 223.88 539.989 224.48 539.989 226.26C539.989 228.4 538.029 229.24 536.149 229.24C534.589 229.24 533.429 228.84 532.489 227.56L533.849 226.44C534.429 227.02 535.109 227.56 536.149 227.56C537.069 227.56 538.069 227.18 538.069 226.36C538.069 225.28 536.569 225.08 535.789 224.9C534.249 224.52 532.889 224.02 532.889 222.2C532.889 220.22 534.709 219.28 536.489 219.28C537.749 219.28 539.049 219.72 539.729 220.84ZM547.286 219.52V221.08H544.706V225.38C544.706 226.44 544.706 227.56 546.066 227.56C546.486 227.56 546.986 227.5 547.346 227.28V228.92C546.926 229.16 546.086 229.24 545.726 229.24C542.946 229.24 542.906 227.54 542.906 226.02V221.08H540.826V219.52H542.906V216.86H544.706V219.52H547.286ZM549.638 229V219.52H551.438V220.98H551.478C551.938 219.98 553.138 219.28 554.318 219.28C554.598 219.28 554.878 219.32 555.118 219.4L555.038 221.34C554.738 221.26 554.438 221.2 554.158 221.2C552.398 221.2 551.438 222.16 551.438 224.24V229H549.638ZM565.679 224.92H558.079C558.079 226.58 559.619 227.68 561.279 227.68C562.379 227.68 563.179 227.12 563.879 226.26L565.239 227.3C564.239 228.6 562.859 229.24 561.039 229.24C558.039 229.24 556.159 227.08 556.159 224.26C556.159 221.42 558.219 219.28 561.059 219.28C564.399 219.28 565.679 221.84 565.679 224.28V224.92ZM558.079 223.48H563.759C563.719 221.9 562.839 220.72 561.019 220.72C559.239 220.72 558.079 222.22 558.079 223.48ZM576.822 224.92H569.222C569.222 226.58 570.762 227.68 572.422 227.68C573.522 227.68 574.322 227.12 575.022 226.26L576.382 227.3C575.382 228.6 574.002 229.24 572.182 229.24C569.182 229.24 567.302 227.08 567.302 224.26C567.302 221.42 569.362 219.28 572.202 219.28C575.542 219.28 576.822 221.84 576.822 224.28V224.92ZM569.222 223.48H574.902C574.862 221.9 573.982 220.72 572.162 220.72C570.382 220.72 569.222 222.22 569.222 223.48ZM584.086 219.52V221.08H581.506V225.38C581.506 226.44 581.506 227.56 582.866 227.56C583.286 227.56 583.786 227.5 584.146 227.28V228.92C583.726 229.16 582.886 229.24 582.526 229.24C579.746 229.24 579.706 227.54 579.706 226.02V221.08H577.626V219.52H579.706V216.86H581.506V219.52H584.086ZM592.734 229V221.08H590.694V219.52H592.734V217.4C592.734 214.88 593.614 213.64 595.974 213.64C596.374 213.64 596.814 213.66 597.314 213.78L597.114 215.38C596.774 215.24 596.454 215.2 596.094 215.2C594.774 215.2 594.554 216.02 594.554 217.34V219.52H596.694V221.08H594.534V229H592.734ZM600.185 224.26C600.185 226.18 601.385 227.56 603.305 227.56C605.225 227.56 606.425 226.18 606.425 224.26C606.425 222.34 605.225 220.96 603.305 220.96C601.385 220.96 600.185 222.34 600.185 224.26ZM598.265 224.26C598.265 221.5 600.485 219.28 603.305 219.28C606.125 219.28 608.345 221.5 608.345 224.26C608.345 227.02 606.125 229.24 603.305 229.24C600.485 229.24 598.265 227.02 598.265 224.26ZM612.09 224.26C612.09 226.18 613.29 227.56 615.21 227.56C617.13 227.56 618.33 226.18 618.33 224.26C618.33 222.34 617.13 220.96 615.21 220.96C613.29 220.96 612.09 222.34 612.09 224.26ZM610.17 224.26C610.17 221.5 612.39 219.28 615.21 219.28C618.03 219.28 620.25 221.5 620.25 224.26C620.25 227.02 618.03 229.24 615.21 229.24C612.39 229.24 610.17 227.02 610.17 224.26ZM632.035 213.88V229H630.235V227.64H630.195C629.495 228.66 628.175 229.24 626.895 229.24C623.955 229.24 622.075 227.06 622.075 224.26C622.075 221.42 623.975 219.28 626.895 219.28C628.255 219.28 629.555 219.9 630.195 220.88H630.235V213.88H632.035ZM627.115 227.56C629.035 227.56 630.235 226.18 630.235 224.26C630.235 222.34 629.035 220.96 627.115 220.96C625.195 220.96 623.995 222.34 623.995 224.26C623.995 226.18 625.195 227.56 627.115 227.56ZM637.711 226.72L636.031 231.64H634.391L635.771 226.72H637.711ZM654.124 220.8L652.764 222.04C652.104 221.34 651.404 220.98 650.404 220.98C648.444 220.98 647.444 222.56 647.444 224.34C647.444 226.12 648.644 227.56 650.504 227.56C651.504 227.56 652.204 227.2 652.804 226.5L654.084 227.78C653.144 228.82 651.864 229.24 650.484 229.24C647.564 229.24 645.524 227.22 645.524 224.3C645.524 221.38 647.524 219.3 650.484 219.3C651.864 219.3 653.184 219.78 654.124 220.8ZM655.662 229V219.52H657.462V220.98H657.502C657.962 219.98 659.162 219.28 660.342 219.28C660.622 219.28 660.902 219.32 661.142 219.4L661.062 221.34C660.762 221.26 660.462 221.2 660.182 221.2C658.422 221.2 657.462 222.16 657.462 224.24V229H655.662ZM664.215 221.8L663.135 220.68C664.135 219.74 665.575 219.28 666.895 219.28C669.695 219.28 670.855 220.8 670.855 222.44V227.28C670.855 227.94 670.875 228.5 670.935 229H669.335C669.295 228.52 669.275 228.04 669.275 227.56H669.235C668.435 228.78 667.355 229.24 665.915 229.24C664.155 229.24 662.635 228.24 662.635 226.4C662.635 223.96 664.975 223.12 667.855 223.12H669.175V222.72C669.175 221.74 668.455 220.72 666.915 220.72C665.535 220.72 664.875 221.3 664.215 221.8ZM669.175 224.44H668.215C666.515 224.44 664.435 224.74 664.435 226.26C664.435 227.34 665.235 227.8 666.475 227.8C668.475 227.8 669.175 226.32 669.175 225.04V224.44ZM674.196 229V221.08H672.156V219.52H674.196V217.4C674.196 214.88 675.076 213.64 677.436 213.64C677.836 213.64 678.276 213.66 678.776 213.78L678.576 215.38C678.236 215.24 677.916 215.2 677.556 215.2C676.236 215.2 676.016 216.02 676.016 217.34V219.52H678.156V221.08H675.996V229H674.196ZM685.266 219.52V221.08H682.686V225.38C682.686 226.44 682.686 227.56 684.046 227.56C684.466 227.56 684.966 227.5 685.326 227.28V228.92C684.906 229.16 684.066 229.24 683.706 229.24C680.926 229.24 680.886 227.54 680.886 226.02V221.08H678.806V219.52H680.886V216.86H682.686V219.52H685.266ZM696.578 224.92H688.978C688.978 226.58 690.518 227.68 692.178 227.68C693.278 227.68 694.078 227.12 694.778 226.26L696.138 227.3C695.138 228.6 693.758 229.24 691.938 229.24C688.938 229.24 687.058 227.08 687.058 224.26C687.058 221.42 689.118 219.28 691.958 219.28C695.298 219.28 696.578 221.84 696.578 224.28V224.92ZM688.978 223.48H694.658C694.618 221.9 693.738 220.72 691.918 220.72C690.138 220.72 688.978 222.22 688.978 223.48ZM708.262 213.88V229H706.462V227.64H706.422C705.722 228.66 704.402 229.24 703.122 229.24C700.182 229.24 698.302 227.06 698.302 224.26C698.302 221.42 700.202 219.28 703.122 219.28C704.482 219.28 705.782 219.9 706.422 220.88H706.462V213.88H708.262ZM703.342 227.56C705.262 227.56 706.462 226.18 706.462 224.26C706.462 222.34 705.262 220.96 703.342 220.96C701.422 220.96 700.222 222.34 700.222 224.26C700.222 226.18 701.422 227.56 703.342 227.56ZM718.595 229L715.475 219.52H717.495L719.635 226.6H719.675L721.935 219.52H723.835L726.235 226.6H726.275L728.315 219.52H730.215L727.155 229H725.335L722.835 221.92H722.795L720.535 229H718.595ZM731.96 229V219.52H733.76V229H731.96ZM731.54 216.12C731.54 215.4 732.14 214.8 732.86 214.8C733.58 214.8 734.18 215.4 734.18 216.12C734.18 216.84 733.58 217.44 732.86 217.44C732.14 217.44 731.54 216.84 731.54 216.12ZM741.735 219.52V221.08H739.155V225.38C739.155 226.44 739.155 227.56 740.515 227.56C740.935 227.56 741.435 227.5 741.795 227.28V228.92C741.375 229.16 740.535 229.24 740.175 229.24C737.395 229.24 737.355 227.54 737.355 226.02V221.08H735.275V219.52H737.355V216.86H739.155V219.52H741.735ZM744.087 229V213.88H745.887V220.98H745.927C746.387 219.98 747.587 219.28 749.047 219.28C750.887 219.28 752.487 220.38 752.487 222.9V229H750.687V223.4C750.687 221.62 749.667 220.96 748.527 220.96C747.027 220.96 745.887 221.92 745.887 224.12V229H744.087ZM761.947 221.8L760.867 220.68C761.867 219.74 763.307 219.28 764.627 219.28C767.427 219.28 768.587 220.8 768.587 222.44V227.28C768.587 227.94 768.607 228.5 768.667 229H767.067C767.027 228.52 767.007 228.04 767.007 227.56H766.967C766.167 228.78 765.087 229.24 763.647 229.24C761.887 229.24 760.367 228.24 760.367 226.4C760.367 223.96 762.707 223.12 765.587 223.12H766.907V222.72C766.907 221.74 766.187 220.72 764.647 220.72C763.267 220.72 762.607 221.3 761.947 221.8ZM766.907 224.44H765.947C764.247 224.44 762.167 224.74 762.167 226.26C762.167 227.34 762.967 227.8 764.207 227.8C766.207 227.8 766.907 226.32 766.907 225.04V224.44ZM779.628 219.52V229H777.828V227.54H777.788C777.328 228.54 776.128 229.24 774.668 229.24C772.828 229.24 771.228 228.14 771.228 225.62V219.52H773.028V225.12C773.028 226.9 774.048 227.56 775.188 227.56C776.688 227.56 777.828 226.6 777.828 224.4V219.52H779.628ZM787.451 219.52V221.08H784.871V225.38C784.871 226.44 784.871 227.56 786.231 227.56C786.651 227.56 787.151 227.5 787.511 227.28V228.92C787.091 229.16 786.251 229.24 785.891 229.24C783.111 229.24 783.071 227.54 783.071 226.02V221.08H780.991V219.52H783.071V216.86H784.871V219.52H787.451ZM789.804 229V213.88H791.604V220.98H791.644C792.104 219.98 793.304 219.28 794.764 219.28C796.604 219.28 798.204 220.38 798.204 222.9V229H796.404V223.4C796.404 221.62 795.384 220.96 794.244 220.96C792.744 220.96 791.604 221.92 791.604 224.12V229H789.804ZM809.907 224.92H802.307C802.307 226.58 803.847 227.68 805.507 227.68C806.607 227.68 807.407 227.12 808.107 226.26L809.467 227.3C808.467 228.6 807.087 229.24 805.267 229.24C802.267 229.24 800.387 227.08 800.387 224.26C800.387 221.42 802.447 219.28 805.287 219.28C808.627 219.28 809.907 221.84 809.907 224.28V224.92ZM802.307 223.48H807.987C807.947 221.9 807.067 220.72 805.247 220.72C803.467 220.72 802.307 222.22 802.307 223.48ZM812.09 229V219.52H813.89V220.98H813.93C814.39 219.98 815.59 219.28 817.05 219.28C818.89 219.28 820.49 220.38 820.49 222.9V229H818.69V223.4C818.69 221.62 817.67 220.96 816.53 220.96C815.03 220.96 813.89 221.92 813.89 224.12V229H812.09ZM828.314 219.52V221.08H825.734V225.38C825.734 226.44 825.734 227.56 827.094 227.56C827.514 227.56 828.014 227.5 828.374 227.28V228.92C827.954 229.16 827.114 229.24 826.754 229.24C823.974 229.24 823.934 227.54 823.934 226.02V221.08H821.854V219.52H823.934V216.86H825.734V219.52H828.314ZM830.806 229V219.52H832.606V229H830.806ZM830.386 216.12C830.386 215.4 830.986 214.8 831.706 214.8C832.426 214.8 833.026 215.4 833.026 216.12C833.026 216.84 832.426 217.44 831.706 217.44C830.986 217.44 830.386 216.84 830.386 216.12ZM843.641 220.8L842.281 222.04C841.621 221.34 840.921 220.98 839.921 220.98C837.961 220.98 836.961 222.56 836.961 224.34C836.961 226.12 838.161 227.56 840.021 227.56C841.021 227.56 841.721 227.2 842.321 226.5L843.601 227.78C842.661 228.82 841.381 229.24 840.001 229.24C837.081 229.24 835.041 227.22 835.041 224.3C835.041 221.38 837.041 219.3 840.001 219.3C841.381 219.3 842.701 219.78 843.641 220.8ZM132.705 254V244.52H134.505V254H132.705ZM132.285 241.12C132.285 240.4 132.885 239.8 133.605 239.8C134.325 239.8 134.925 240.4 134.925 241.12C134.925 241.84 134.325 242.44 133.605 242.44C132.885 242.44 132.285 241.84 132.285 241.12ZM137.4 254V244.52H139.2V245.98H139.24C139.7 244.98 140.9 244.28 142.36 244.28C144.2 244.28 145.8 245.38 145.8 247.9V254H144V248.4C144 246.62 142.98 245.96 141.84 245.96C140.34 245.96 139.2 246.92 139.2 249.12V254H137.4ZM158.043 244.52V253.92C158.043 256.78 155.963 258.8 152.863 258.8C151.063 258.8 149.563 258.34 148.223 257.1L149.443 255.58C150.383 256.58 151.443 257.12 152.823 257.12C155.503 257.12 156.243 255.44 156.243 253.84V252.44H156.183C155.503 253.58 154.203 254.12 152.903 254.12C150.123 254.12 148.063 252.02 148.083 249.26C148.083 246.46 149.963 244.28 152.903 244.28C154.183 244.28 155.503 244.86 156.203 245.88H156.243V244.52H158.043ZM153.123 245.96C151.203 245.96 150.003 247.34 150.003 249.26C150.003 251.18 151.203 252.44 153.123 252.44C155.043 252.44 156.243 251.18 156.243 249.26C156.243 247.34 155.043 245.96 153.123 245.96ZM160.799 254V244.52H162.599V245.98H162.639C163.099 244.98 164.299 244.28 165.479 244.28C165.759 244.28 166.039 244.32 166.279 244.4L166.199 246.34C165.899 246.26 165.599 246.2 165.319 246.2C163.559 246.2 162.599 247.16 162.599 249.24V254H160.799ZM176.84 249.92H169.24C169.24 251.58 170.78 252.68 172.44 252.68C173.54 252.68 174.34 252.12 175.04 251.26L176.4 252.3C175.4 253.6 174.02 254.24 172.2 254.24C169.2 254.24 167.32 252.08 167.32 249.26C167.32 246.42 169.38 244.28 172.22 244.28C175.56 244.28 176.84 246.84 176.84 249.28V249.92ZM169.24 248.48H174.92C174.88 246.9 174 245.72 172.18 245.72C170.4 245.72 169.24 247.22 169.24 248.48ZM188.524 238.88V254H186.724V252.64H186.684C185.984 253.66 184.664 254.24 183.384 254.24C180.444 254.24 178.564 252.06 178.564 249.26C178.564 246.42 180.464 244.28 183.384 244.28C184.744 244.28 186.044 244.9 186.684 245.88H186.724V238.88H188.524ZM183.604 252.56C185.524 252.56 186.724 251.18 186.724 249.26C186.724 247.34 185.524 245.96 183.604 245.96C181.684 245.96 180.484 247.34 180.484 249.26C180.484 251.18 181.684 252.56 183.604 252.56ZM191.42 254V244.52H193.22V254H191.42ZM191 241.12C191 240.4 191.6 239.8 192.32 239.8C193.04 239.8 193.64 240.4 193.64 241.12C193.64 241.84 193.04 242.44 192.32 242.44C191.6 242.44 191 241.84 191 241.12ZM205.075 249.92H197.475C197.475 251.58 199.015 252.68 200.675 252.68C201.775 252.68 202.575 252.12 203.275 251.26L204.635 252.3C203.635 253.6 202.255 254.24 200.435 254.24C197.435 254.24 195.555 252.08 195.555 249.26C195.555 246.42 197.615 244.28 200.455 244.28C203.795 244.28 205.075 246.84 205.075 249.28V249.92ZM197.475 248.48H203.155C203.115 246.9 202.235 245.72 200.415 245.72C198.635 245.72 197.475 247.22 197.475 248.48ZM207.258 254V244.52H209.058V245.98H209.098C209.558 244.98 210.758 244.28 212.218 244.28C214.058 244.28 215.658 245.38 215.658 247.9V254H213.858V248.4C213.858 246.62 212.838 245.96 211.698 245.96C210.198 245.96 209.058 246.92 209.058 249.12V254H207.258ZM223.481 244.52V246.08H220.901V250.38C220.901 251.44 220.901 252.56 222.261 252.56C222.681 252.56 223.181 252.5 223.541 252.28V253.92C223.121 254.16 222.281 254.24 221.921 254.24C219.141 254.24 219.101 252.54 219.101 251.02V246.08H217.021V244.52H219.101V241.86H220.901V244.52H223.481ZM232.274 245.84L230.874 246.9C230.454 246.38 229.834 245.96 228.934 245.96C228.094 245.96 227.354 246.34 227.354 247.02C227.354 248.16 228.974 248.32 229.774 248.5C231.334 248.88 232.534 249.48 232.534 251.26C232.534 253.4 230.574 254.24 228.694 254.24C227.134 254.24 225.974 253.84 225.034 252.56L226.394 251.44C226.974 252.02 227.654 252.56 228.694 252.56C229.614 252.56 230.614 252.18 230.614 251.36C230.614 250.28 229.114 250.08 228.334 249.9C226.794 249.52 225.434 249.02 225.434 247.2C225.434 245.22 227.254 244.28 229.034 244.28C230.294 244.28 231.594 244.72 232.274 245.84ZM241.467 246.8L240.387 245.68C241.387 244.74 242.827 244.28 244.147 244.28C246.947 244.28 248.107 245.8 248.107 247.44V252.28C248.107 252.94 248.127 253.5 248.187 254H246.587C246.547 253.52 246.527 253.04 246.527 252.56H246.487C245.687 253.78 244.607 254.24 243.167 254.24C241.407 254.24 239.887 253.24 239.887 251.4C239.887 248.96 242.227 248.12 245.107 248.12H246.427V247.72C246.427 246.74 245.707 245.72 244.167 245.72C242.787 245.72 242.127 246.3 241.467 246.8ZM246.427 249.44H245.467C243.767 249.44 241.687 249.74 241.687 251.26C241.687 252.34 242.487 252.8 243.727 252.8C245.727 252.8 246.427 251.32 246.427 250.04V249.44ZM250.748 254V244.52H252.548V245.98H252.588C253.048 244.98 254.248 244.28 255.708 244.28C257.548 244.28 259.148 245.38 259.148 247.9V254H257.348V248.4C257.348 246.62 256.328 245.96 255.188 245.96C253.688 245.96 252.548 246.92 252.548 249.12V254H250.748ZM271.391 238.88V254H269.591V252.64H269.551C268.851 253.66 267.531 254.24 266.251 254.24C263.311 254.24 261.431 252.06 261.431 249.26C261.431 246.42 263.331 244.28 266.251 244.28C267.611 244.28 268.911 244.9 269.551 245.88H269.591V238.88H271.391ZM266.471 252.56C268.391 252.56 269.591 251.18 269.591 249.26C269.591 247.34 268.391 245.96 266.471 245.96C264.551 245.96 263.351 247.34 263.351 249.26C263.351 251.18 264.551 252.56 266.471 252.56ZM279.744 254V238.88H281.544V245.88H281.584C282.224 244.9 283.524 244.28 284.884 244.28C287.804 244.28 289.704 246.42 289.704 249.26C289.704 252.06 287.824 254.24 284.884 254.24C283.604 254.24 282.284 253.66 281.584 252.64H281.544V254H279.744ZM284.664 252.56C286.584 252.56 287.784 251.18 287.784 249.26C287.784 247.34 286.584 245.96 284.664 245.96C282.744 245.96 281.544 247.34 281.544 249.26C281.544 251.18 282.744 252.56 284.664 252.56ZM293.461 249.26C293.461 251.18 294.661 252.56 296.581 252.56C298.501 252.56 299.701 251.18 299.701 249.26C299.701 247.34 298.501 245.96 296.581 245.96C294.661 245.96 293.461 247.34 293.461 249.26ZM291.541 249.26C291.541 246.5 293.761 244.28 296.581 244.28C299.401 244.28 301.621 246.5 301.621 249.26C301.621 252.02 299.401 254.24 296.581 254.24C293.761 254.24 291.541 252.02 291.541 249.26ZM304.046 254V238.88H305.846V254H304.046ZM318.24 238.88V254H316.44V252.64H316.4C315.7 253.66 314.38 254.24 313.1 254.24C310.16 254.24 308.28 252.06 308.28 249.26C308.28 246.42 310.18 244.28 313.1 244.28C314.46 244.28 315.76 244.9 316.4 245.88H316.44V238.88H318.24ZM313.32 252.56C315.24 252.56 316.44 251.18 316.44 249.26C316.44 247.34 315.24 245.96 313.32 245.96C311.4 245.96 310.2 247.34 310.2 249.26C310.2 251.18 311.4 252.56 313.32 252.56ZM333.053 254V238.88H334.853V254H333.053ZM327.293 254V246.08H325.253V244.52H327.293V242.4C327.293 239.88 328.173 238.64 330.533 238.64C330.933 238.64 331.373 238.66 331.873 238.78L331.673 240.38C331.333 240.24 331.013 240.2 330.653 240.2C329.333 240.2 329.113 241.02 329.113 242.34V244.52H331.253V246.08H329.093V254H327.293ZM338.857 246.8L337.777 245.68C338.777 244.74 340.217 244.28 341.537 244.28C344.337 244.28 345.497 245.8 345.497 247.44V252.28C345.497 252.94 345.517 253.5 345.577 254H343.977C343.937 253.52 343.917 253.04 343.917 252.56H343.877C343.077 253.78 341.997 254.24 340.557 254.24C338.797 254.24 337.277 253.24 337.277 251.4C337.277 248.96 339.617 248.12 342.497 248.12H343.817V247.72C343.817 246.74 343.097 245.72 341.557 245.72C340.177 245.72 339.517 246.3 338.857 246.8ZM343.817 249.44H342.857C341.157 249.44 339.077 249.74 339.077 251.26C339.077 252.34 339.877 252.8 341.117 252.8C343.117 252.8 343.817 251.32 343.817 250.04V249.44ZM350.858 254L346.998 244.52H349.078L351.918 251.78L354.638 244.52H356.558L352.838 254H350.858ZM359.628 249.26C359.628 251.18 360.828 252.56 362.748 252.56C364.668 252.56 365.868 251.18 365.868 249.26C365.868 247.34 364.668 245.96 362.748 245.96C360.828 245.96 359.628 247.34 359.628 249.26ZM357.708 249.26C357.708 246.5 359.928 244.28 362.748 244.28C365.568 244.28 367.788 246.5 367.788 249.26C367.788 252.02 365.568 254.24 362.748 254.24C359.928 254.24 357.708 252.02 357.708 249.26ZM370.073 254V244.52H371.873V245.98H371.913C372.373 244.98 373.573 244.28 374.753 244.28C375.033 244.28 375.313 244.32 375.553 244.4L375.473 246.34C375.173 246.26 374.873 246.2 374.593 246.2C372.833 246.2 371.873 247.16 371.873 249.24V254H370.073ZM383.945 245.84L382.545 246.9C382.125 246.38 381.505 245.96 380.605 245.96C379.765 245.96 379.025 246.34 379.025 247.02C379.025 248.16 380.645 248.32 381.445 248.5C383.005 248.88 384.205 249.48 384.205 251.26C384.205 253.4 382.245 254.24 380.365 254.24C378.805 254.24 377.645 253.84 376.705 252.56L378.065 251.44C378.645 252.02 379.325 252.56 380.365 252.56C381.285 252.56 382.285 252.18 382.285 251.36C382.285 250.28 380.785 250.08 380.005 249.9C378.465 249.52 377.105 249.02 377.105 247.2C377.105 245.22 378.925 244.28 380.705 244.28C381.965 244.28 383.265 244.72 383.945 245.84ZM387.842 254.12C387.122 254.12 386.522 253.52 386.522 252.8C386.522 252.08 387.122 251.48 387.842 251.48C388.562 251.48 389.162 252.08 389.162 252.8C389.162 253.52 388.562 254.12 387.842 254.12ZM400.415 254L396.275 239.84H398.275L401.395 251.16H401.435L404.775 239.84H406.975L410.315 251.16H410.355L413.475 239.84H415.475L411.355 254H409.335L405.895 242.44H405.855L402.435 254H400.415ZM416.883 254V238.88H418.683V245.98H418.723C419.183 244.98 420.383 244.28 421.843 244.28C423.683 244.28 425.283 245.38 425.283 247.9V254H423.483V248.4C423.483 246.62 422.463 245.96 421.323 245.96C419.823 245.96 418.683 246.92 418.683 249.12V254H416.883ZM436.986 249.92H429.386C429.386 251.58 430.926 252.68 432.586 252.68C433.686 252.68 434.486 252.12 435.186 251.26L436.546 252.3C435.546 253.6 434.166 254.24 432.346 254.24C429.346 254.24 427.466 252.08 427.466 249.26C427.466 246.42 429.526 244.28 432.366 244.28C435.706 244.28 436.986 246.84 436.986 249.28V249.92ZM429.386 248.48H435.066C435.026 246.9 434.146 245.72 432.326 245.72C430.546 245.72 429.386 247.22 429.386 248.48ZM444.249 244.52V246.08H441.669V250.38C441.669 251.44 441.669 252.56 443.029 252.56C443.449 252.56 443.949 252.5 444.309 252.28V253.92C443.889 254.16 443.049 254.24 442.689 254.24C439.909 254.24 439.869 252.54 439.869 251.02V246.08H437.789V244.52H439.869V241.86H441.669V244.52H444.249ZM446.602 254V238.88H448.402V245.98H448.442C448.902 244.98 450.102 244.28 451.562 244.28C453.402 244.28 455.002 245.38 455.002 247.9V254H453.202V248.4C453.202 246.62 452.182 245.96 451.042 245.96C449.542 245.96 448.402 246.92 448.402 249.12V254H446.602ZM466.705 249.92H459.105C459.105 251.58 460.645 252.68 462.305 252.68C463.405 252.68 464.205 252.12 464.905 251.26L466.265 252.3C465.265 253.6 463.885 254.24 462.065 254.24C459.065 254.24 457.185 252.08 457.185 249.26C457.185 246.42 459.245 244.28 462.085 244.28C465.425 244.28 466.705 246.84 466.705 249.28V249.92ZM459.105 248.48H464.785C464.745 246.9 463.865 245.72 462.045 245.72C460.265 245.72 459.105 247.22 459.105 248.48ZM468.888 254V244.52H470.688V245.98H470.728C471.188 244.98 472.388 244.28 473.568 244.28C473.848 244.28 474.128 244.32 474.368 244.4L474.288 246.34C473.988 246.26 473.688 246.2 473.408 246.2C471.648 246.2 470.688 247.16 470.688 249.24V254H468.888ZM484.717 254.06L480.777 244.52H482.857L485.677 251.92H485.717L488.397 244.52H490.337L485.837 256.04C485.197 257.68 484.577 258.8 482.597 258.8C482.057 258.8 481.497 258.74 480.997 258.54L481.217 256.9C481.557 257.04 481.937 257.12 482.297 257.12C483.437 257.12 483.777 256.5 484.137 255.56L484.717 254.06ZM493.407 249.26C493.407 251.18 494.607 252.56 496.527 252.56C498.447 252.56 499.647 251.18 499.647 249.26C499.647 247.34 498.447 245.96 496.527 245.96C494.607 245.96 493.407 247.34 493.407 249.26ZM491.487 249.26C491.487 246.5 493.707 244.28 496.527 244.28C499.347 244.28 501.567 246.5 501.567 249.26C501.567 252.02 499.347 254.24 496.527 254.24C493.707 254.24 491.487 252.02 491.487 249.26ZM512.252 244.52V254H510.452V252.54H510.412C509.952 253.54 508.752 254.24 507.292 254.24C505.452 254.24 503.852 253.14 503.852 250.62V244.52H505.652V250.12C505.652 251.9 506.672 252.56 507.812 252.56C509.312 252.56 510.452 251.6 510.452 249.4V244.52H512.252ZM528.732 245.8L527.372 247.04C526.712 246.34 526.012 245.98 525.012 245.98C523.052 245.98 522.052 247.56 522.052 249.34C522.052 251.12 523.252 252.56 525.112 252.56C526.112 252.56 526.812 252.2 527.412 251.5L528.692 252.78C527.752 253.82 526.472 254.24 525.092 254.24C522.172 254.24 520.132 252.22 520.132 249.3C520.132 246.38 522.132 244.3 525.092 244.3C526.472 244.3 527.792 244.78 528.732 245.8ZM530.27 254V244.52H532.07V245.98H532.11C532.57 244.98 533.77 244.28 534.95 244.28C535.23 244.28 535.51 244.32 535.75 244.4L535.67 246.34C535.37 246.26 535.07 246.2 534.79 246.2C533.03 246.2 532.07 247.16 532.07 249.24V254H530.27ZM538.823 246.8L537.743 245.68C538.743 244.74 540.183 244.28 541.503 244.28C544.303 244.28 545.463 245.8 545.463 247.44V252.28C545.463 252.94 545.483 253.5 545.543 254H543.943C543.903 253.52 543.883 253.04 543.883 252.56H543.843C543.043 253.78 541.963 254.24 540.523 254.24C538.763 254.24 537.243 253.24 537.243 251.4C537.243 248.96 539.583 248.12 542.463 248.12H543.783V247.72C543.783 246.74 543.063 245.72 541.523 245.72C540.143 245.72 539.483 246.3 538.823 246.8ZM543.783 249.44H542.823C541.123 249.44 539.043 249.74 539.043 251.26C539.043 252.34 539.843 252.8 541.083 252.8C543.083 252.8 543.783 251.32 543.783 250.04V249.44ZM550.824 254L546.964 244.52H549.044L551.884 251.78L554.604 244.52H556.524L552.804 254H550.824ZM567.094 249.92H559.494C559.494 251.58 561.034 252.68 562.694 252.68C563.794 252.68 564.594 252.12 565.294 251.26L566.654 252.3C565.654 253.6 564.274 254.24 562.454 254.24C559.454 254.24 557.574 252.08 557.574 249.26C557.574 246.42 559.634 244.28 562.474 244.28C565.814 244.28 567.094 246.84 567.094 249.28V249.92ZM559.494 248.48H565.174C565.134 246.9 564.254 245.72 562.434 245.72C560.654 245.72 559.494 247.22 559.494 248.48ZM581.313 245.84L579.913 246.9C579.493 246.38 578.873 245.96 577.973 245.96C577.133 245.96 576.393 246.34 576.393 247.02C576.393 248.16 578.013 248.32 578.813 248.5C580.373 248.88 581.573 249.48 581.573 251.26C581.573 253.4 579.613 254.24 577.733 254.24C576.173 254.24 575.013 253.84 574.073 252.56L575.433 251.44C576.013 252.02 576.693 252.56 577.733 252.56C578.653 252.56 579.653 252.18 579.653 251.36C579.653 250.28 578.153 250.08 577.373 249.9C575.833 249.52 574.473 249.02 574.473 247.2C574.473 245.22 576.293 244.28 578.073 244.28C579.333 244.28 580.633 244.72 581.313 245.84ZM584.91 246.8L583.83 245.68C584.83 244.74 586.27 244.28 587.59 244.28C590.39 244.28 591.55 245.8 591.55 247.44V252.28C591.55 252.94 591.57 253.5 591.63 254H590.03C589.99 253.52 589.97 253.04 589.97 252.56H589.93C589.13 253.78 588.05 254.24 586.61 254.24C584.85 254.24 583.33 253.24 583.33 251.4C583.33 248.96 585.67 248.12 588.55 248.12H589.87V247.72C589.87 246.74 589.15 245.72 587.61 245.72C586.23 245.72 585.57 246.3 584.91 246.8ZM589.87 249.44H588.91C587.21 249.44 585.13 249.74 585.13 251.26C585.13 252.34 585.93 252.8 587.17 252.8C589.17 252.8 589.87 251.32 589.87 250.04V249.44ZM596.911 254L593.051 244.52H595.131L597.971 251.78L600.691 244.52H602.611L598.891 254H596.911ZM605.681 249.26C605.681 251.18 606.881 252.56 608.801 252.56C610.721 252.56 611.921 251.18 611.921 249.26C611.921 247.34 610.721 245.96 608.801 245.96C606.881 245.96 605.681 247.34 605.681 249.26ZM603.761 249.26C603.761 246.5 605.981 244.28 608.801 244.28C611.621 244.28 613.841 246.5 613.841 249.26C613.841 252.02 611.621 254.24 608.801 254.24C605.981 254.24 603.761 252.02 603.761 249.26ZM616.126 254V244.52H617.926V245.98H617.966C618.426 244.98 619.626 244.28 620.806 244.28C621.086 244.28 621.366 244.32 621.606 244.4L621.526 246.34C621.226 246.26 620.926 246.2 620.646 246.2C618.886 246.2 617.926 247.16 617.926 249.24V254H616.126ZM626.359 254.06L622.419 244.52H624.499L627.319 251.92H627.359L630.039 244.52H631.979L627.479 256.04C626.839 257.68 626.219 258.8 624.239 258.8C623.699 258.8 623.139 258.74 622.639 258.54L622.859 256.9C623.199 257.04 623.579 257.12 623.939 257.12C625.079 257.12 625.419 256.5 625.779 255.56L626.359 254.06ZM648.685 238.88V254H646.885V252.64H646.845C646.145 253.66 644.825 254.24 643.545 254.24C640.605 254.24 638.725 252.06 638.725 249.26C638.725 246.42 640.625 244.28 643.545 244.28C644.905 244.28 646.205 244.9 646.845 245.88H646.885V238.88H648.685ZM643.765 252.56C645.685 252.56 646.885 251.18 646.885 249.26C646.885 247.34 645.685 245.96 643.765 245.96C641.845 245.96 640.645 247.34 640.645 249.26C640.645 251.18 641.845 252.56 643.765 252.56ZM651.582 254V244.52H653.382V254H651.582ZM651.162 241.12C651.162 240.4 651.762 239.8 652.482 239.8C653.202 239.8 653.802 240.4 653.802 241.12C653.802 241.84 653.202 242.44 652.482 242.44C651.762 242.44 651.162 241.84 651.162 241.12ZM662.716 245.84L661.316 246.9C660.896 246.38 660.276 245.96 659.376 245.96C658.536 245.96 657.796 246.34 657.796 247.02C657.796 248.16 659.416 248.32 660.216 248.5C661.776 248.88 662.976 249.48 662.976 251.26C662.976 253.4 661.016 254.24 659.136 254.24C657.576 254.24 656.416 253.84 655.476 252.56L656.836 251.44C657.416 252.02 658.096 252.56 659.136 252.56C660.056 252.56 661.056 252.18 661.056 251.36C661.056 250.28 659.556 250.08 658.776 249.9C657.236 249.52 655.876 249.02 655.876 247.2C655.876 245.22 657.696 244.28 659.476 244.28C660.736 244.28 662.036 244.72 662.716 245.84ZM665.193 254V238.88H666.993V245.98H667.033C667.493 244.98 668.693 244.28 670.153 244.28C671.993 244.28 673.593 245.38 673.593 247.9V254H671.793V248.4C671.793 246.62 670.773 245.96 669.633 245.96C668.133 245.96 666.993 246.92 666.993 249.12V254H665.193ZM685.296 249.92H677.696C677.696 251.58 679.236 252.68 680.896 252.68C681.996 252.68 682.796 252.12 683.496 251.26L684.856 252.3C683.856 253.6 682.476 254.24 680.656 254.24C677.656 254.24 675.776 252.08 675.776 249.26C675.776 246.42 677.836 244.28 680.676 244.28C684.016 244.28 685.296 246.84 685.296 249.28V249.92ZM677.696 248.48H683.376C683.336 246.9 682.456 245.72 680.636 245.72C678.856 245.72 677.696 247.22 677.696 248.48ZM693.92 245.84L692.52 246.9C692.1 246.38 691.48 245.96 690.58 245.96C689.74 245.96 689 246.34 689 247.02C689 248.16 690.62 248.32 691.42 248.5C692.98 248.88 694.18 249.48 694.18 251.26C694.18 253.4 692.22 254.24 690.34 254.24C688.78 254.24 687.62 253.84 686.68 252.56L688.04 251.44C688.62 252.02 689.3 252.56 690.34 252.56C691.26 252.56 692.26 252.18 692.26 251.36C692.26 250.28 690.76 250.08 689.98 249.9C688.44 249.52 687.08 249.02 687.08 247.2C687.08 245.22 688.9 244.28 690.68 244.28C691.94 244.28 693.24 244.72 693.92 245.84ZM703.453 249.26C703.453 251.18 704.653 252.56 706.573 252.56C708.493 252.56 709.693 251.18 709.693 249.26C709.693 247.34 708.493 245.96 706.573 245.96C704.653 245.96 703.453 247.34 703.453 249.26ZM701.533 249.26C701.533 246.5 703.753 244.28 706.573 244.28C709.393 244.28 711.613 246.5 711.613 249.26C711.613 252.02 709.393 254.24 706.573 254.24C703.753 254.24 701.533 252.02 701.533 249.26ZM713.898 254V244.52H715.698V245.98H715.738C716.198 244.98 717.398 244.28 718.578 244.28C718.858 244.28 719.138 244.32 719.378 244.4L719.298 246.34C718.998 246.26 718.698 246.2 718.418 246.2C716.658 246.2 715.698 247.16 715.698 249.24V254H713.898ZM727.066 254V238.88H728.866V254H727.066ZM731.901 254V244.52H733.701V254H731.901ZM731.481 241.12C731.481 240.4 732.081 239.8 732.801 239.8C733.521 239.8 734.121 240.4 734.121 241.12C734.121 241.84 733.521 242.44 732.801 242.44C732.081 242.44 731.481 241.84 731.481 241.12ZM746.096 244.52V253.92C746.096 256.78 744.016 258.8 740.916 258.8C739.116 258.8 737.616 258.34 736.276 257.1L737.496 255.58C738.436 256.58 739.496 257.12 740.876 257.12C743.556 257.12 744.296 255.44 744.296 253.84V252.44H744.236C743.556 253.58 742.256 254.12 740.956 254.12C738.176 254.12 736.116 252.02 736.136 249.26C736.136 246.46 738.016 244.28 740.956 244.28C742.236 244.28 743.556 244.86 744.256 245.88H744.296V244.52H746.096ZM741.176 245.96C739.256 245.96 738.056 247.34 738.056 249.26C738.056 251.18 739.256 252.44 741.176 252.44C743.096 252.44 744.296 251.18 744.296 249.26C744.296 247.34 743.096 245.96 741.176 245.96ZM748.852 254V238.88H750.652V245.98H750.692C751.152 244.98 752.352 244.28 753.812 244.28C755.652 244.28 757.252 245.38 757.252 247.9V254H755.452V248.4C755.452 246.62 754.432 245.96 753.292 245.96C751.792 245.96 750.652 246.92 750.652 249.12V254H748.852ZM765.075 244.52V246.08H762.495V250.38C762.495 251.44 762.495 252.56 763.855 252.56C764.275 252.56 764.775 252.5 765.135 252.28V253.92C764.715 254.16 763.875 254.24 763.515 254.24C760.735 254.24 760.695 252.54 760.695 251.02V246.08H758.615V244.52H760.695V241.86H762.495V244.52H765.075ZM779.464 245.84L778.064 246.9C777.644 246.38 777.024 245.96 776.124 245.96C775.284 245.96 774.544 246.34 774.544 247.02C774.544 248.16 776.164 248.32 776.964 248.5C778.524 248.88 779.724 249.48 779.724 251.26C779.724 253.4 777.764 254.24 775.884 254.24C774.324 254.24 773.164 253.84 772.224 252.56L773.584 251.44C774.164 252.02 774.844 252.56 775.884 252.56C776.804 252.56 777.804 252.18 777.804 251.36C777.804 250.28 776.304 250.08 775.524 249.9C773.984 249.52 772.624 249.02 772.624 247.2C772.624 245.22 774.444 244.28 776.224 244.28C777.484 244.28 778.784 244.72 779.464 245.84ZM781.941 254V244.52H783.741V245.98H783.781C784.241 244.98 785.441 244.28 786.901 244.28C788.741 244.28 790.341 245.38 790.341 247.9V254H788.541V248.4C788.541 246.62 787.521 245.96 786.381 245.96C784.881 245.96 783.741 246.92 783.741 249.12V254H781.941ZM794.204 246.8L793.124 245.68C794.124 244.74 795.564 244.28 796.884 244.28C799.684 244.28 800.844 245.8 800.844 247.44V252.28C800.844 252.94 800.864 253.5 800.924 254H799.324C799.284 253.52 799.264 253.04 799.264 252.56H799.224C798.424 253.78 797.344 254.24 795.904 254.24C794.144 254.24 792.624 253.24 792.624 251.4C792.624 248.96 794.964 248.12 797.844 248.12H799.164V247.72C799.164 246.74 798.444 245.72 796.904 245.72C795.524 245.72 794.864 246.3 794.204 246.8ZM799.164 249.44H798.204C796.504 249.44 794.424 249.74 794.424 251.26C794.424 252.34 795.224 252.8 796.464 252.8C798.464 252.8 799.164 251.32 799.164 250.04V249.44ZM811.625 245.8L810.265 247.04C809.605 246.34 808.905 245.98 807.905 245.98C805.945 245.98 804.945 247.56 804.945 249.34C804.945 251.12 806.145 252.56 808.005 252.56C809.005 252.56 809.705 252.2 810.305 251.5L811.585 252.78C810.645 253.82 809.365 254.24 807.985 254.24C805.065 254.24 803.025 252.22 803.025 249.3C803.025 246.38 805.025 244.3 807.985 244.3C809.365 244.3 810.685 244.78 811.625 245.8ZM813.164 254V238.88H814.964V248.64L819.044 244.54H821.544L817.124 248.84L821.924 254H819.364L814.964 249.08V254H813.164ZM830.005 245.84L828.605 246.9C828.185 246.38 827.565 245.96 826.665 245.96C825.825 245.96 825.085 246.34 825.085 247.02C825.085 248.16 826.705 248.32 827.505 248.5C829.065 248.88 830.265 249.48 830.265 251.26C830.265 253.4 828.305 254.24 826.425 254.24C824.865 254.24 823.705 253.84 822.765 252.56L824.125 251.44C824.705 252.02 825.385 252.56 826.425 252.56C827.345 252.56 828.345 252.18 828.345 251.36C828.345 250.28 826.845 250.08 826.065 249.9C824.525 249.52 823.165 249.02 823.165 247.2C823.165 245.22 824.985 244.28 826.765 244.28C828.025 244.28 829.325 244.72 830.005 245.84ZM835.402 251.72L833.722 256.64H832.082L833.462 251.72H835.402ZM845.134 249.26C845.134 251.18 846.334 252.56 848.254 252.56C850.174 252.56 851.374 251.18 851.374 249.26C851.374 247.34 850.174 245.96 848.254 245.96C846.334 245.96 845.134 247.34 845.134 249.26ZM843.214 249.26C843.214 246.5 845.434 244.28 848.254 244.28C851.074 244.28 853.294 246.5 853.294 249.26C853.294 252.02 851.074 254.24 848.254 254.24C845.434 254.24 843.214 252.02 843.214 249.26ZM863.979 244.52V254H862.179V252.54H862.139C861.679 253.54 860.479 254.24 859.019 254.24C857.179 254.24 855.579 253.14 855.579 250.62V244.52H857.379V250.12C857.379 251.9 858.399 252.56 859.539 252.56C861.039 252.56 862.179 251.6 862.179 249.4V244.52H863.979ZM866.723 254V244.52H868.523V245.98H868.563C869.023 244.98 870.223 244.28 871.403 244.28C871.683 244.28 871.963 244.32 872.203 244.4L872.123 246.34C871.823 246.26 871.523 246.2 871.243 246.2C869.483 246.2 868.523 247.16 868.523 249.24V254H866.723ZM132.388 279V269.52H134.068V271H134.108C134.288 270.44 135.448 269.28 137.148 269.28C138.548 269.28 139.508 269.88 140.108 271.04C140.728 269.88 141.968 269.28 143.108 269.28C146.028 269.28 146.708 271.36 146.708 273.48V279H144.908V273.72C144.908 272.28 144.608 270.96 142.868 270.96C141.128 270.96 140.448 272.14 140.448 273.82V279H138.648V274.04C138.648 272.24 138.388 270.96 136.648 270.96C135.348 270.96 134.188 271.94 134.188 274.08V279H132.388ZM158.41 274.92H150.81C150.81 276.58 152.35 277.68 154.01 277.68C155.11 277.68 155.91 277.12 156.61 276.26L157.97 277.3C156.97 278.6 155.59 279.24 153.77 279.24C150.77 279.24 148.89 277.08 148.89 274.26C148.89 271.42 150.95 269.28 153.79 269.28C157.13 269.28 158.41 271.84 158.41 274.28V274.92ZM150.81 273.48H156.49C156.45 271.9 155.57 270.72 153.75 270.72C151.97 270.72 150.81 272.22 150.81 273.48ZM160.593 279V269.52H162.393V270.98H162.433C162.893 269.98 164.093 269.28 165.553 269.28C167.393 269.28 168.993 270.38 168.993 272.9V279H167.193V273.4C167.193 271.62 166.173 270.96 165.033 270.96C163.533 270.96 162.393 271.92 162.393 274.12V279H160.593ZM180.136 269.52V279H178.336V277.54H178.296C177.836 278.54 176.636 279.24 175.176 279.24C173.336 279.24 171.736 278.14 171.736 275.62V269.52H173.536V275.12C173.536 276.9 174.556 277.56 175.696 277.56C177.196 277.56 178.336 276.6 178.336 274.4V269.52H180.136ZM188.476 279V263.88H190.276V270.98H190.316C190.776 269.98 191.976 269.28 193.436 269.28C195.276 269.28 196.876 270.38 196.876 272.9V279H195.076V273.4C195.076 271.62 194.056 270.96 192.916 270.96C191.416 270.96 190.276 271.92 190.276 274.12V279H188.476ZM200.739 271.8L199.659 270.68C200.659 269.74 202.099 269.28 203.419 269.28C206.219 269.28 207.379 270.8 207.379 272.44V277.28C207.379 277.94 207.399 278.5 207.459 279H205.859C205.819 278.52 205.799 278.04 205.799 277.56H205.759C204.959 278.78 203.879 279.24 202.439 279.24C200.679 279.24 199.159 278.24 199.159 276.4C199.159 273.96 201.499 273.12 204.379 273.12H205.699V272.72C205.699 271.74 204.979 270.72 203.439 270.72C202.059 270.72 201.399 271.3 200.739 271.8ZM205.699 274.44H204.739C203.039 274.44 200.959 274.74 200.959 276.26C200.959 277.34 201.759 277.8 202.999 277.8C204.999 277.8 205.699 276.32 205.699 275.04V274.44ZM216.46 270.84L215.06 271.9C214.64 271.38 214.02 270.96 213.12 270.96C212.28 270.96 211.54 271.34 211.54 272.02C211.54 273.16 213.16 273.32 213.96 273.5C215.52 273.88 216.72 274.48 216.72 276.26C216.72 278.4 214.76 279.24 212.88 279.24C211.32 279.24 210.16 278.84 209.22 277.56L210.58 276.44C211.16 277.02 211.84 277.56 212.88 277.56C213.8 277.56 214.8 277.18 214.8 276.36C214.8 275.28 213.3 275.08 212.52 274.9C210.98 274.52 209.62 274.02 209.62 272.2C209.62 270.22 211.44 269.28 213.22 269.28C214.48 269.28 215.78 269.72 216.46 270.84ZM230.973 270.84L229.573 271.9C229.153 271.38 228.533 270.96 227.633 270.96C226.793 270.96 226.053 271.34 226.053 272.02C226.053 273.16 227.673 273.32 228.473 273.5C230.033 273.88 231.233 274.48 231.233 276.26C231.233 278.4 229.273 279.24 227.393 279.24C225.833 279.24 224.673 278.84 223.733 277.56L225.093 276.44C225.673 277.02 226.353 277.56 227.393 277.56C228.313 277.56 229.313 277.18 229.313 276.36C229.313 275.28 227.813 275.08 227.033 274.9C225.493 274.52 224.133 274.02 224.133 272.2C224.133 270.22 225.953 269.28 227.733 269.28C228.993 269.28 230.293 269.72 230.973 270.84ZM234.91 274.26C234.91 276.18 236.11 277.56 238.03 277.56C239.95 277.56 241.15 276.18 241.15 274.26C241.15 272.34 239.95 270.96 238.03 270.96C236.11 270.96 234.91 272.34 234.91 274.26ZM232.99 274.26C232.99 271.5 235.21 269.28 238.03 269.28C240.85 269.28 243.07 271.5 243.07 274.26C243.07 277.02 240.85 279.24 238.03 279.24C235.21 279.24 232.99 277.02 232.99 274.26ZM245.355 279V269.52H247.035V271H247.075C247.255 270.44 248.415 269.28 250.115 269.28C251.515 269.28 252.475 269.88 253.075 271.04C253.695 269.88 254.935 269.28 256.075 269.28C258.995 269.28 259.675 271.36 259.675 273.48V279H257.875V273.72C257.875 272.28 257.575 270.96 255.835 270.96C254.095 270.96 253.415 272.14 253.415 273.82V279H251.615V274.04C251.615 272.24 251.355 270.96 249.615 270.96C248.315 270.96 247.155 271.94 247.155 274.08V279H245.355ZM271.376 274.92H263.776C263.776 276.58 265.316 277.68 266.976 277.68C268.076 277.68 268.876 277.12 269.576 276.26L270.936 277.3C269.936 278.6 268.556 279.24 266.736 279.24C263.736 279.24 261.856 277.08 261.856 274.26C261.856 271.42 263.916 269.28 266.756 269.28C270.096 269.28 271.376 271.84 271.376 274.28V274.92ZM263.776 273.48H269.456C269.416 271.9 268.536 270.72 266.716 270.72C264.936 270.72 263.776 272.22 263.776 273.48ZM278.64 269.52V271.08H276.06V275.38C276.06 276.44 276.06 277.56 277.42 277.56C277.84 277.56 278.34 277.5 278.7 277.28V278.92C278.28 279.16 277.44 279.24 277.08 279.24C274.3 279.24 274.26 277.54 274.26 276.02V271.08H272.18V269.52H274.26V266.86H276.06V269.52H278.64ZM280.992 279V263.88H282.792V270.98H282.832C283.292 269.98 284.492 269.28 285.952 269.28C287.792 269.28 289.392 270.38 289.392 272.9V279H287.592V273.4C287.592 271.62 286.572 270.96 285.432 270.96C283.932 270.96 282.792 271.92 282.792 274.12V279H280.992ZM292.275 279V269.52H294.075V279H292.275ZM291.855 266.12C291.855 265.4 292.455 264.8 293.175 264.8C293.895 264.8 294.495 265.4 294.495 266.12C294.495 266.84 293.895 267.44 293.175 267.44C292.455 267.44 291.855 266.84 291.855 266.12ZM296.97 279V269.52H298.77V270.98H298.81C299.27 269.98 300.47 269.28 301.93 269.28C303.77 269.28 305.37 270.38 305.37 272.9V279H303.57V273.4C303.57 271.62 302.55 270.96 301.41 270.96C299.91 270.96 298.77 271.92 298.77 274.12V279H296.97ZM317.613 269.52V278.92C317.613 281.78 315.533 283.8 312.433 283.8C310.633 283.8 309.133 283.34 307.793 282.1L309.013 280.58C309.953 281.58 311.013 282.12 312.393 282.12C315.073 282.12 315.813 280.44 315.813 278.84V277.44H315.753C315.073 278.58 313.773 279.12 312.473 279.12C309.693 279.12 307.633 277.02 307.653 274.26C307.653 271.46 309.533 269.28 312.473 269.28C313.753 269.28 315.073 269.86 315.773 270.88H315.813V269.52H317.613ZM312.693 270.96C310.773 270.96 309.573 272.34 309.573 274.26C309.573 276.18 310.773 277.44 312.693 277.44C314.613 277.44 315.813 276.18 315.813 274.26C315.813 272.34 314.613 270.96 312.693 270.96ZM331.046 269.52V271.08H328.466V275.38C328.466 276.44 328.466 277.56 329.826 277.56C330.246 277.56 330.746 277.5 331.106 277.28V278.92C330.686 279.16 329.846 279.24 329.486 279.24C326.706 279.24 326.666 277.54 326.666 276.02V271.08H324.586V269.52H326.666V266.86H328.466V269.52H331.046ZM334.859 274.26C334.859 276.18 336.059 277.56 337.979 277.56C339.899 277.56 341.099 276.18 341.099 274.26C341.099 272.34 339.899 270.96 337.979 270.96C336.059 270.96 334.859 272.34 334.859 274.26ZM332.939 274.26C332.939 271.5 335.159 269.28 337.979 269.28C340.799 269.28 343.019 271.5 343.019 274.26C343.019 277.02 340.799 279.24 337.979 279.24C335.159 279.24 332.939 277.02 332.939 274.26ZM357.34 270.84L355.94 271.9C355.52 271.38 354.9 270.96 354 270.96C353.16 270.96 352.42 271.34 352.42 272.02C352.42 273.16 354.04 273.32 354.84 273.5C356.4 273.88 357.6 274.48 357.6 276.26C357.6 278.4 355.64 279.24 353.76 279.24C352.2 279.24 351.04 278.84 350.1 277.56L351.46 276.44C352.04 277.02 352.72 277.56 353.76 277.56C354.68 277.56 355.68 277.18 355.68 276.36C355.68 275.28 354.18 275.08 353.4 274.9C351.86 274.52 350.5 274.02 350.5 272.2C350.5 270.22 352.32 269.28 354.1 269.28C355.36 269.28 356.66 269.72 357.34 270.84ZM360.937 271.8L359.857 270.68C360.857 269.74 362.297 269.28 363.617 269.28C366.417 269.28 367.577 270.8 367.577 272.44V277.28C367.577 277.94 367.597 278.5 367.657 279H366.057C366.017 278.52 365.997 278.04 365.997 277.56H365.957C365.157 278.78 364.077 279.24 362.637 279.24C360.877 279.24 359.357 278.24 359.357 276.4C359.357 273.96 361.697 273.12 364.577 273.12H365.897V272.72C365.897 271.74 365.177 270.72 363.637 270.72C362.257 270.72 361.597 271.3 360.937 271.8ZM365.897 274.44H364.937C363.237 274.44 361.157 274.74 361.157 276.26C361.157 277.34 361.957 277.8 363.197 277.8C365.197 277.8 365.897 276.32 365.897 275.04V274.44ZM375.298 269.52V271.08H372.718V275.38C372.718 276.44 372.718 277.56 374.078 277.56C374.498 277.56 374.998 277.5 375.358 277.28V278.92C374.938 279.16 374.098 279.24 373.738 279.24C370.958 279.24 370.918 277.54 370.918 276.02V271.08H368.838V269.52H370.918V266.86H372.718V269.52H375.298ZM377.79 279V269.52H379.59V279H377.79ZM377.37 266.12C377.37 265.4 377.97 264.8 378.69 264.8C379.41 264.8 380.01 265.4 380.01 266.12C380.01 266.84 379.41 267.44 378.69 267.44C377.97 267.44 377.37 266.84 377.37 266.12ZM388.925 270.84L387.525 271.9C387.105 271.38 386.485 270.96 385.585 270.96C384.745 270.96 384.005 271.34 384.005 272.02C384.005 273.16 385.625 273.32 386.425 273.5C387.985 273.88 389.185 274.48 389.185 276.26C389.185 278.4 387.225 279.24 385.345 279.24C383.785 279.24 382.625 278.84 381.685 277.56L383.045 276.44C383.625 277.02 384.305 277.56 385.345 277.56C386.265 277.56 387.265 277.18 387.265 276.36C387.265 275.28 385.765 275.08 384.985 274.9C383.445 274.52 382.085 274.02 382.085 272.2C382.085 270.22 383.905 269.28 385.685 269.28C386.945 269.28 388.245 269.72 388.925 270.84ZM392.102 279V271.08H390.062V269.52H392.102V267.4C392.102 264.88 392.982 263.64 395.342 263.64C395.742 263.64 396.182 263.66 396.682 263.78L396.482 265.38C396.142 265.24 395.822 265.2 395.462 265.2C394.142 265.2 393.922 266.02 393.922 267.34V269.52H396.062V271.08H393.902V279H392.102ZM400.892 279.06L396.952 269.52H399.032L401.852 276.92H401.892L404.572 269.52H406.512L402.012 281.04C401.372 282.68 400.752 283.8 398.772 283.8C398.232 283.8 397.672 283.74 397.172 283.54L397.392 281.9C397.732 282.04 398.112 282.12 398.472 282.12C399.612 282.12 399.952 281.5 400.312 280.56L400.892 279.06ZM422.678 274.92H415.078C415.078 276.58 416.618 277.68 418.278 277.68C419.378 277.68 420.178 277.12 420.878 276.26L422.238 277.3C421.238 278.6 419.858 279.24 418.038 279.24C415.038 279.24 413.158 277.08 413.158 274.26C413.158 271.42 415.218 269.28 418.058 269.28C421.398 269.28 422.678 271.84 422.678 274.28V274.92ZM415.078 273.48H420.758C420.718 271.9 419.838 270.72 418.018 270.72C416.238 270.72 415.078 272.22 415.078 273.48ZM427.581 279L423.721 269.52H425.801L428.641 276.78L431.361 269.52H433.281L429.561 279H427.581ZM443.851 274.92H436.251C436.251 276.58 437.791 277.68 439.451 277.68C440.551 277.68 441.351 277.12 442.051 276.26L443.411 277.3C442.411 278.6 441.031 279.24 439.211 279.24C436.211 279.24 434.331 277.08 434.331 274.26C434.331 271.42 436.391 269.28 439.231 269.28C442.571 269.28 443.851 271.84 443.851 274.28V274.92ZM436.251 273.48H441.931C441.891 271.9 441.011 270.72 439.191 270.72C437.411 270.72 436.251 272.22 436.251 273.48ZM446.035 279V269.52H447.835V270.98H447.875C448.335 269.98 449.535 269.28 450.715 269.28C450.995 269.28 451.275 269.32 451.515 269.4L451.435 271.34C451.135 271.26 450.835 271.2 450.555 271.2C448.795 271.2 447.835 272.16 447.835 274.24V279H446.035ZM456.267 279.06L452.327 269.52H454.407L457.227 276.92H457.267L459.947 269.52H461.887L457.387 281.04C456.747 282.68 456.127 283.8 454.147 283.8C453.607 283.8 453.047 283.74 452.547 283.54L452.767 281.9C453.107 282.04 453.487 282.12 453.847 282.12C454.987 282.12 455.327 281.5 455.687 280.56L456.267 279.06ZM469.093 284.64V269.52H470.893V270.88H470.933C471.633 269.86 472.953 269.28 474.233 269.28C477.173 269.28 479.053 271.46 479.053 274.26C479.053 277.1 477.153 279.24 474.233 279.24C472.873 279.24 471.573 278.62 470.933 277.64H470.893V284.64H469.093ZM474.013 270.96C472.093 270.96 470.893 272.34 470.893 274.26C470.893 276.18 472.093 277.56 474.013 277.56C475.933 277.56 477.133 276.18 477.133 274.26C477.133 272.34 475.933 270.96 474.013 270.96ZM482.47 271.8L481.39 270.68C482.39 269.74 483.83 269.28 485.15 269.28C487.95 269.28 489.11 270.8 489.11 272.44V277.28C489.11 277.94 489.13 278.5 489.19 279H487.59C487.55 278.52 487.53 278.04 487.53 277.56H487.49C486.69 278.78 485.61 279.24 484.17 279.24C482.41 279.24 480.89 278.24 480.89 276.4C480.89 273.96 483.23 273.12 486.11 273.12H487.43V272.72C487.43 271.74 486.71 270.72 485.17 270.72C483.79 270.72 483.13 271.3 482.47 271.8ZM487.43 274.44H486.47C484.77 274.44 482.69 274.74 482.69 276.26C482.69 277.34 483.49 277.8 484.73 277.8C486.73 277.8 487.43 276.32 487.43 275.04V274.44ZM491.891 279V263.88H493.691V279H491.891ZM497.706 271.8L496.626 270.68C497.626 269.74 499.066 269.28 500.386 269.28C503.186 269.28 504.346 270.8 504.346 272.44V277.28C504.346 277.94 504.366 278.5 504.426 279H502.826C502.786 278.52 502.766 278.04 502.766 277.56H502.726C501.926 278.78 500.846 279.24 499.406 279.24C497.646 279.24 496.126 278.24 496.126 276.4C496.126 273.96 498.466 273.12 501.346 273.12H502.666V272.72C502.666 271.74 501.946 270.72 500.406 270.72C499.026 270.72 498.366 271.3 497.706 271.8ZM502.666 274.44H501.706C500.006 274.44 497.926 274.74 497.926 276.26C497.926 277.34 498.726 277.8 499.966 277.8C501.966 277.8 502.666 276.32 502.666 275.04V274.44ZM512.067 269.52V271.08H509.487V275.38C509.487 276.44 509.487 277.56 510.847 277.56C511.267 277.56 511.767 277.5 512.127 277.28V278.92C511.707 279.16 510.867 279.24 510.507 279.24C507.727 279.24 507.687 277.54 507.687 276.02V271.08H505.607V269.52H507.687V266.86H509.487V269.52H512.067ZM523.379 274.92H515.779C515.779 276.58 517.319 277.68 518.979 277.68C520.079 277.68 520.879 277.12 521.579 276.26L522.939 277.3C521.939 278.6 520.559 279.24 518.739 279.24C515.739 279.24 513.859 277.08 513.859 274.26C513.859 271.42 515.919 269.28 518.759 269.28C522.099 269.28 523.379 271.84 523.379 274.28V274.92ZM515.779 273.48H521.459C521.419 271.9 520.539 270.72 518.719 270.72C516.939 270.72 515.779 272.22 515.779 273.48ZM526.983 279.12C526.263 279.12 525.663 278.52 525.663 277.8C525.663 277.08 526.263 276.48 526.983 276.48C527.703 276.48 528.303 277.08 528.303 277.8C528.303 278.52 527.703 279.12 526.983 279.12ZM537.215 279V264.84H539.135V279H537.215ZM542.352 279V269.52H544.152V270.98H544.192C544.652 269.98 545.852 269.28 547.312 269.28C549.152 269.28 550.752 270.38 550.752 272.9V279H548.952V273.4C548.952 271.62 547.932 270.96 546.792 270.96C545.292 270.96 544.152 271.92 544.152 274.12V279H542.352ZM562.995 263.88V279H561.195V277.64H561.155C560.455 278.66 559.135 279.24 557.855 279.24C554.915 279.24 553.035 277.06 553.035 274.26C553.035 271.42 554.935 269.28 557.855 269.28C559.215 269.28 560.515 269.9 561.155 270.88H561.195V263.88H562.995ZM558.075 277.56C559.995 277.56 561.195 276.18 561.195 274.26C561.195 272.34 559.995 270.96 558.075 270.96C556.155 270.96 554.955 272.34 554.955 274.26C554.955 276.18 556.155 277.56 558.075 277.56ZM574.152 269.52V279H572.352V277.54H572.312C571.852 278.54 570.652 279.24 569.192 279.24C567.352 279.24 565.752 278.14 565.752 275.62V269.52H567.552V275.12C567.552 276.9 568.572 277.56 569.712 277.56C571.212 277.56 572.352 276.6 572.352 274.4V269.52H574.152ZM577.035 279V263.88H578.835V279H577.035ZM591.23 269.52V278.92C591.23 281.78 589.15 283.8 586.05 283.8C584.25 283.8 582.75 283.34 581.41 282.1L582.63 280.58C583.57 281.58 584.63 282.12 586.01 282.12C588.69 282.12 589.43 280.44 589.43 278.84V277.44H589.37C588.69 278.58 587.39 279.12 586.09 279.12C583.31 279.12 581.25 277.02 581.27 274.26C581.27 271.46 583.15 269.28 586.09 269.28C587.37 269.28 588.69 269.86 589.39 270.88H589.43V269.52H591.23ZM586.31 270.96C584.39 270.96 583.19 272.34 583.19 274.26C583.19 276.18 584.39 277.44 586.31 277.44C588.23 277.44 589.43 276.18 589.43 274.26C589.43 272.34 588.23 270.96 586.31 270.96ZM602.946 274.92H595.346C595.346 276.58 596.886 277.68 598.546 277.68C599.646 277.68 600.446 277.12 601.146 276.26L602.506 277.3C601.506 278.6 600.126 279.24 598.306 279.24C595.306 279.24 593.426 277.08 593.426 274.26C593.426 271.42 595.486 269.28 598.326 269.28C601.666 269.28 602.946 271.84 602.946 274.28V274.92ZM595.346 273.48H601.026C600.986 271.9 600.106 270.72 598.286 270.72C596.506 270.72 595.346 272.22 595.346 273.48ZM610.866 279V269.52H612.666V279H610.866ZM610.446 266.12C610.446 265.4 611.046 264.8 611.766 264.8C612.486 264.8 613.086 265.4 613.086 266.12C613.086 266.84 612.486 267.44 611.766 267.44C611.046 267.44 610.446 266.84 610.446 266.12ZM615.56 279V269.52H617.36V270.98H617.4C617.86 269.98 619.06 269.28 620.52 269.28C622.36 269.28 623.96 270.38 623.96 272.9V279H622.16V273.4C622.16 271.62 621.14 270.96 620 270.96C618.5 270.96 617.36 271.92 617.36 274.12V279H615.56ZM637.38 269.52V271.08H634.8V275.38C634.8 276.44 634.8 277.56 636.16 277.56C636.58 277.56 637.08 277.5 637.44 277.28V278.92C637.02 279.16 636.18 279.24 635.82 279.24C633.04 279.24 633 277.54 633 276.02V271.08H630.92V269.52H633V266.86H634.8V269.52H637.38ZM639.732 279V263.88H641.532V270.98H641.572C642.032 269.98 643.232 269.28 644.692 269.28C646.532 269.28 648.132 270.38 648.132 272.9V279H646.332V273.4C646.332 271.62 645.312 270.96 644.172 270.96C642.672 270.96 641.532 271.92 641.532 274.12V279H639.732ZM659.836 274.92H652.236C652.236 276.58 653.776 277.68 655.436 277.68C656.536 277.68 657.336 277.12 658.036 276.26L659.396 277.3C658.396 278.6 657.016 279.24 655.196 279.24C652.196 279.24 650.316 277.08 650.316 274.26C650.316 271.42 652.376 269.28 655.216 269.28C658.556 269.28 659.836 271.84 659.836 274.28V274.92ZM652.236 273.48H657.916C657.876 271.9 656.996 270.72 655.176 270.72C653.396 270.72 652.236 272.22 652.236 273.48ZM672.695 269.52V271.08H670.115V275.38C670.115 276.44 670.115 277.56 671.475 277.56C671.895 277.56 672.395 277.5 672.755 277.28V278.92C672.335 279.16 671.495 279.24 671.135 279.24C668.355 279.24 668.315 277.54 668.315 276.02V271.08H666.235V269.52H668.315V266.86H670.115V269.52H672.695ZM676.168 271.8L675.088 270.68C676.088 269.74 677.528 269.28 678.848 269.28C681.648 269.28 682.808 270.8 682.808 272.44V277.28C682.808 277.94 682.828 278.5 682.888 279H681.288C681.248 278.52 681.228 278.04 681.228 277.56H681.188C680.388 278.78 679.308 279.24 677.868 279.24C676.108 279.24 674.588 278.24 674.588 276.4C674.588 273.96 676.928 273.12 679.808 273.12H681.128V272.72C681.128 271.74 680.408 270.72 678.868 270.72C677.488 270.72 676.828 271.3 676.168 271.8ZM681.128 274.44H680.168C678.468 274.44 676.388 274.74 676.388 276.26C676.388 277.34 677.188 277.8 678.428 277.8C680.428 277.8 681.128 276.32 681.128 275.04V274.44ZM691.889 270.84L690.489 271.9C690.069 271.38 689.449 270.96 688.549 270.96C687.709 270.96 686.969 271.34 686.969 272.02C686.969 273.16 688.589 273.32 689.389 273.5C690.949 273.88 692.149 274.48 692.149 276.26C692.149 278.4 690.189 279.24 688.309 279.24C686.749 279.24 685.589 278.84 684.649 277.56L686.009 276.44C686.589 277.02 687.269 277.56 688.309 277.56C689.229 277.56 690.229 277.18 690.229 276.36C690.229 275.28 688.729 275.08 687.949 274.9C686.409 274.52 685.049 274.02 685.049 272.2C685.049 270.22 686.869 269.28 688.649 269.28C689.909 269.28 691.209 269.72 691.889 270.84ZM699.446 269.52V271.08H696.866V275.38C696.866 276.44 696.866 277.56 698.226 277.56C698.646 277.56 699.146 277.5 699.506 277.28V278.92C699.086 279.16 698.246 279.24 697.886 279.24C695.106 279.24 695.066 277.54 695.066 276.02V271.08H692.986V269.52H695.066V266.86H696.866V269.52H699.446ZM710.758 274.92H703.158C703.158 276.58 704.698 277.68 706.358 277.68C707.458 277.68 708.258 277.12 708.958 276.26L710.318 277.3C709.318 278.6 707.938 279.24 706.118 279.24C703.118 279.24 701.238 277.08 701.238 274.26C701.238 271.42 703.298 269.28 706.138 269.28C709.478 269.28 710.758 271.84 710.758 274.28V274.92ZM703.158 273.48H708.838C708.798 271.9 707.918 270.72 706.098 270.72C704.318 270.72 703.158 272.22 703.158 273.48ZM719.998 274.26C719.998 276.18 721.198 277.56 723.118 277.56C725.038 277.56 726.238 276.18 726.238 274.26C726.238 272.34 725.038 270.96 723.118 270.96C721.198 270.96 719.998 272.34 719.998 274.26ZM718.078 274.26C718.078 271.5 720.298 269.28 723.118 269.28C725.938 269.28 728.158 271.5 728.158 274.26C728.158 277.02 725.938 279.24 723.118 279.24C720.298 279.24 718.078 277.02 718.078 274.26ZM731.143 279V271.08H729.103V269.52H731.143V267.4C731.143 264.88 732.023 263.64 734.383 263.64C734.783 263.64 735.223 263.66 735.723 263.78L735.523 265.38C735.183 265.24 734.863 265.2 734.503 265.2C733.183 265.2 732.963 266.02 732.963 267.34V269.52H735.103V271.08H732.943V279H731.143ZM747.609 274.34V264.84H749.529V274.96C749.529 278.52 746.969 279.36 745.389 279.36C743.389 279.36 741.929 278.34 741.549 276.26L743.429 275.84C743.649 276.9 744.329 277.56 745.389 277.56C747.289 277.56 747.609 275.94 747.609 274.34ZM753.528 271.8L752.448 270.68C753.448 269.74 754.888 269.28 756.208 269.28C759.008 269.28 760.168 270.8 760.168 272.44V277.28C760.168 277.94 760.188 278.5 760.248 279H758.648C758.608 278.52 758.588 278.04 758.588 277.56H758.548C757.748 278.78 756.668 279.24 755.228 279.24C753.468 279.24 751.948 278.24 751.948 276.4C751.948 273.96 754.288 273.12 757.168 273.12H758.488V272.72C758.488 271.74 757.768 270.72 756.228 270.72C754.848 270.72 754.188 271.3 753.528 271.8ZM758.488 274.44H757.528C755.828 274.44 753.748 274.74 753.748 276.26C753.748 277.34 754.548 277.8 755.788 277.8C757.788 277.8 758.488 276.32 758.488 275.04V274.44ZM762.809 284.64V269.52H764.609V270.88H764.649C765.349 269.86 766.669 269.28 767.949 269.28C770.889 269.28 772.769 271.46 772.769 274.26C772.769 277.1 770.869 279.24 767.949 279.24C766.589 279.24 765.289 278.62 764.649 277.64H764.609V284.64H762.809ZM767.729 270.96C765.809 270.96 764.609 272.34 764.609 274.26C764.609 276.18 765.809 277.56 767.729 277.56C769.649 277.56 770.849 276.18 770.849 274.26C770.849 272.34 769.649 270.96 767.729 270.96ZM776.185 271.8L775.105 270.68C776.105 269.74 777.545 269.28 778.865 269.28C781.665 269.28 782.825 270.8 782.825 272.44V277.28C782.825 277.94 782.845 278.5 782.905 279H781.305C781.265 278.52 781.245 278.04 781.245 277.56H781.205C780.405 278.78 779.325 279.24 777.885 279.24C776.125 279.24 774.605 278.24 774.605 276.4C774.605 273.96 776.945 273.12 779.825 273.12H781.145V272.72C781.145 271.74 780.425 270.72 778.885 270.72C777.505 270.72 776.845 271.3 776.185 271.8ZM781.145 274.44H780.185C778.485 274.44 776.405 274.74 776.405 276.26C776.405 277.34 777.205 277.8 778.445 277.8C780.445 277.8 781.145 276.32 781.145 275.04V274.44ZM785.466 279V269.52H787.266V270.98H787.306C787.766 269.98 788.966 269.28 790.426 269.28C792.266 269.28 793.866 270.38 793.866 272.9V279H792.066V273.4C792.066 271.62 791.046 270.96 789.906 270.96C788.406 270.96 787.266 271.92 787.266 274.12V279H785.466ZM799.53 276.72L797.85 281.64H796.21L797.59 276.72H799.53ZM807.803 279V269.52H809.603V270.98H809.643C810.103 269.98 811.303 269.28 812.483 269.28C812.763 269.28 813.043 269.32 813.283 269.4L813.203 271.34C812.903 271.26 812.603 271.2 812.323 271.2C810.563 271.2 809.603 272.16 809.603 274.24V279H807.803ZM815.375 279V269.52H817.175V279H815.375ZM814.955 266.12C814.955 265.4 815.555 264.8 816.275 264.8C816.995 264.8 817.595 265.4 817.595 266.12C817.595 266.84 816.995 267.44 816.275 267.44C815.555 267.44 814.955 266.84 814.955 266.12ZM829.57 269.52V278.92C829.57 281.78 827.49 283.8 824.39 283.8C822.59 283.8 821.09 283.34 819.75 282.1L820.97 280.58C821.91 281.58 822.97 282.12 824.35 282.12C827.03 282.12 827.77 280.44 827.77 278.84V277.44H827.71C827.03 278.58 825.73 279.12 824.43 279.12C821.65 279.12 819.59 277.02 819.61 274.26C819.61 271.46 821.49 269.28 824.43 269.28C825.71 269.28 827.03 269.86 827.73 270.88H827.77V269.52H829.57ZM824.65 270.96C822.73 270.96 821.53 272.34 821.53 274.26C821.53 276.18 822.73 277.44 824.65 277.44C826.57 277.44 827.77 276.18 827.77 274.26C827.77 272.34 826.57 270.96 824.65 270.96ZM832.326 279V263.88H834.126V270.98H834.166C834.626 269.98 835.826 269.28 837.286 269.28C839.126 269.28 840.726 270.38 840.726 272.9V279H838.926V273.4C838.926 271.62 837.906 270.96 836.766 270.96C835.266 270.96 834.126 271.92 834.126 274.12V279H832.326ZM848.549 269.52V271.08H845.969V275.38C845.969 276.44 845.969 277.56 847.329 277.56C847.749 277.56 848.249 277.5 848.609 277.28V278.92C848.189 279.16 847.349 279.24 846.989 279.24C844.209 279.24 844.169 277.54 844.169 276.02V271.08H842.089V269.52H844.169V266.86H845.969V269.52H848.549ZM857.618 271.8L856.538 270.68C857.538 269.74 858.978 269.28 860.298 269.28C863.098 269.28 864.258 270.8 864.258 272.44V277.28C864.258 277.94 864.278 278.5 864.338 279H862.738C862.698 278.52 862.678 278.04 862.678 277.56H862.638C861.838 278.78 860.758 279.24 859.318 279.24C857.558 279.24 856.038 278.24 856.038 276.4C856.038 273.96 858.378 273.12 861.258 273.12H862.578V272.72C862.578 271.74 861.858 270.72 860.318 270.72C858.938 270.72 858.278 271.3 857.618 271.8ZM862.578 274.44H861.618C859.918 274.44 857.838 274.74 857.838 276.26C857.838 277.34 858.638 277.8 859.878 277.8C861.878 277.8 862.578 276.32 862.578 275.04V274.44ZM871.979 269.52V271.08H869.399V275.38C869.399 276.44 869.399 277.56 870.759 277.56C871.179 277.56 871.679 277.5 872.039 277.28V278.92C871.619 279.16 870.779 279.24 870.419 279.24C867.639 279.24 867.599 277.54 867.599 276.02V271.08H865.519V269.52H867.599V266.86H869.399V269.52H871.979ZM457.289 304.06L453.349 294.52H455.429L458.249 301.92H458.289L460.969 294.52H462.909L458.409 306.04C457.769 307.68 457.149 308.8 455.169 308.8C454.629 308.8 454.069 308.74 453.569 308.54L453.789 306.9C454.129 307.04 454.509 307.12 454.869 307.12C456.009 307.12 456.349 306.5 456.709 305.56L457.289 304.06ZM465.979 299.26C465.979 301.18 467.179 302.56 469.099 302.56C471.019 302.56 472.219 301.18 472.219 299.26C472.219 297.34 471.019 295.96 469.099 295.96C467.179 295.96 465.979 297.34 465.979 299.26ZM464.059 299.26C464.059 296.5 466.279 294.28 469.099 294.28C471.919 294.28 474.139 296.5 474.139 299.26C474.139 302.02 471.919 304.24 469.099 304.24C466.279 304.24 464.059 302.02 464.059 299.26ZM484.824 294.52V304H483.024V302.54H482.984C482.524 303.54 481.324 304.24 479.864 304.24C478.024 304.24 476.424 303.14 476.424 300.62V294.52H478.224V300.12C478.224 301.9 479.244 302.56 480.384 302.56C481.884 302.56 483.024 301.6 483.024 299.4V294.52H484.824ZM487.568 304V294.52H489.368V295.98H489.408C489.868 294.98 491.068 294.28 492.248 294.28C492.528 294.28 492.808 294.32 493.048 294.4L492.968 296.34C492.668 296.26 492.368 296.2 492.088 296.2C490.328 296.2 489.368 297.16 489.368 299.24V304H487.568ZM505.676 294.52V296.08H503.096V300.38C503.096 301.44 503.096 302.56 504.456 302.56C504.876 302.56 505.376 302.5 505.736 302.28V303.92C505.316 304.16 504.476 304.24 504.116 304.24C501.336 304.24 501.296 302.54 501.296 301.02V296.08H499.216V294.52H501.296V291.86H503.096V294.52H505.676ZM509.149 296.8L508.069 295.68C509.069 294.74 510.509 294.28 511.829 294.28C514.629 294.28 515.789 295.8 515.789 297.44V302.28C515.789 302.94 515.809 303.5 515.869 304H514.269C514.229 303.52 514.209 303.04 514.209 302.56H514.169C513.369 303.78 512.289 304.24 510.849 304.24C509.089 304.24 507.569 303.24 507.569 301.4C507.569 298.96 509.909 298.12 512.789 298.12H514.109V297.72C514.109 296.74 513.389 295.72 511.849 295.72C510.469 295.72 509.809 296.3 509.149 296.8ZM514.109 299.44H513.149C511.449 299.44 509.369 299.74 509.369 301.26C509.369 302.34 510.169 302.8 511.409 302.8C513.409 302.8 514.109 301.32 514.109 300.04V299.44ZM518.43 304V288.88H520.23V295.88H520.27C520.91 294.9 522.21 294.28 523.57 294.28C526.49 294.28 528.39 296.42 528.39 299.26C528.39 302.06 526.51 304.24 523.57 304.24C522.29 304.24 520.97 303.66 520.27 302.64H520.23V304H518.43ZM523.35 302.56C525.27 302.56 526.47 301.18 526.47 299.26C526.47 297.34 525.27 295.96 523.35 295.96C521.43 295.96 520.23 297.34 520.23 299.26C520.23 301.18 521.43 302.56 523.35 302.56ZM530.826 304V288.88H532.626V304H530.826ZM544.481 299.92H536.881C536.881 301.58 538.421 302.68 540.081 302.68C541.181 302.68 541.981 302.12 542.681 301.26L544.041 302.3C543.041 303.6 541.661 304.24 539.841 304.24C536.841 304.24 534.961 302.08 534.961 299.26C534.961 296.42 537.021 294.28 539.861 294.28C543.201 294.28 544.481 296.84 544.481 299.28V299.92ZM536.881 298.48H542.561C542.521 296.9 541.641 295.72 539.821 295.72C538.041 295.72 536.881 297.22 536.881 298.48ZM548.084 304.12C547.364 304.12 546.764 303.52 546.764 302.8C546.764 302.08 547.364 301.48 548.084 301.48C548.804 301.48 549.404 302.08 549.404 302.8C549.404 303.52 548.804 304.12 548.084 304.12Z" fill="white"/>
</svg>
