<svg width="100" height="161" viewBox="0 0 100 161" fill="none" xmlns="http://www.w3.org/2000/svg">
<g clip-path="url(#clip0_321_1377)">
<path d="M55.6972 103.079L-9.28375 47.7962C-9.82231 47.338 -10.5208 47.1125 -11.2256 47.1694C-11.9304 47.2262 -12.5838 47.5607 -13.042 48.0993C-18.4617 54.4942 -22.0085 62.2626 -23.2907 70.5466C-24.573 78.8305 -23.5408 87.3077 -20.3081 95.0419L-21.7305 96.7138C-22.7996 97.9704 -23.3257 99.6003 -23.193 101.245C-23.0604 102.889 -22.2799 104.414 -21.0233 105.483L0.637033 123.911C1.89368 124.98 3.52355 125.506 5.1681 125.373C6.81264 125.24 8.33715 124.46 9.40624 123.203L10.8286 121.531C18.9809 123.483 27.5139 123.143 35.4854 120.55C43.4568 117.957 50.5564 113.211 56.0003 106.837C56.4585 106.298 56.6839 105.6 56.6271 104.895C56.5703 104.19 56.2358 103.537 55.6972 103.079ZM10.6066 115.964C10.1156 115.825 9.59518 115.83 9.10707 115.978C8.61896 116.127 8.18365 116.412 7.8528 116.8L5.34493 119.748C5.1922 119.928 4.97442 120.039 4.73948 120.058C4.50455 120.077 4.27171 120.002 4.09219 119.849L-17.5681 101.422C-17.7476 101.269 -17.8591 101.051 -17.8781 100.816C-17.897 100.581 -17.8219 100.348 -17.6692 100.169L-15.1613 97.2211C-14.831 96.8323 -14.6192 96.3569 -14.551 95.8514C-14.4828 95.3458 -14.5611 94.8313 -14.7766 94.3689C-17.8037 87.8336 -19.0169 80.6044 -18.2892 73.439C-17.5615 66.2736 -14.9197 59.4359 -10.6406 53.6427L50.1437 105.355C45.111 110.507 38.785 114.21 31.8288 116.077C24.8726 117.943 17.5424 117.904 10.6066 115.964ZM24.7159 43.0243C28.2333 42.3529 30.6012 41.1879 31.228 39.8135C31.7128 38.7499 31.024 37.5571 31.0167 37.5451C30.7018 37.0054 30.5864 36.3721 30.6908 35.756C30.7953 35.1399 31.1128 34.58 31.588 34.1742C32.0632 33.7683 32.6659 33.5423 33.2907 33.5355C33.9156 33.5288 34.523 33.7418 35.0068 34.1373C35.2121 34.3101 35.3891 34.5138 35.5315 34.7412C35.7589 35.098 37.6799 38.3191 36.1229 41.9184C34.76 45.0702 31.2597 47.2029 25.7185 48.2644C22.2012 48.9358 19.8333 50.1008 19.2065 51.4753C18.7217 52.5388 19.4105 53.7316 19.4178 53.7436C19.7327 54.2833 19.848 54.9166 19.7436 55.5327C19.6392 56.1488 19.3217 56.7087 18.8465 57.1146C18.3713 57.5204 17.7686 57.7464 17.1437 57.7532C16.5188 57.7599 15.9115 57.5469 15.4276 57.1514C15.2224 56.9786 15.0453 56.7749 14.9029 56.5475C14.6756 56.1907 12.7546 52.9696 14.3115 49.3703C15.6745 46.2185 19.1748 44.0858 24.7159 43.0243ZM38.2536 54.5415C41.771 53.8701 44.1389 52.7051 44.7657 51.3306C45.2505 50.2671 44.5617 49.0743 44.5544 49.0623C44.2395 48.5226 44.1241 47.8893 44.2285 47.2732C44.333 46.6571 44.6505 46.0972 45.1257 45.6913C45.6009 45.2855 46.2036 45.0595 46.8284 45.0527C47.4533 45.046 48.0607 45.259 48.5445 45.6545C48.7498 45.8273 48.9268 46.031 49.0692 46.2584C49.2966 46.6152 51.2176 49.8363 49.6606 53.4356C48.2977 56.5874 44.7973 58.7201 39.2562 59.7816C35.7389 60.453 33.3709 61.618 32.7442 62.9925C32.2594 64.056 32.9482 65.2488 32.9555 65.2608C33.2704 65.8005 33.3857 66.4338 33.2813 67.0499C33.1769 67.666 32.8594 68.2259 32.3842 68.6318C31.909 69.0376 31.3063 69.2636 30.6814 69.2704C30.0565 69.2771 29.4491 69.0641 28.9653 68.6686C28.7601 68.4958 28.583 68.2921 28.4406 68.0647C28.2133 67.7079 26.2923 64.4868 27.8492 60.8875C29.2122 57.7357 32.7125 55.603 38.2536 54.5415ZM51.7913 66.0587C55.3087 65.3873 57.6766 64.2223 58.3034 62.8478C58.7882 61.7843 58.0994 60.5915 58.0921 60.5795C57.7772 60.0397 57.6618 59.4065 57.7662 58.7904C57.8707 58.1742 58.1882 57.6144 58.6634 57.2085C59.1386 56.8027 59.7413 56.5767 60.3661 56.5699C60.991 56.5632 61.5984 56.7762 62.0822 57.1717C62.2875 57.3445 62.4645 57.5482 62.6069 57.7756C62.8343 58.1324 64.7553 61.3535 63.1983 64.9528C61.8354 68.1046 58.335 70.2372 52.7939 71.2988C49.2766 71.9702 46.9086 73.1352 46.2819 74.5096C45.7971 75.5732 46.4859 76.7659 46.4932 76.778C46.8081 77.3177 46.9234 77.951 46.819 78.5671C46.7146 79.1832 46.3971 79.7431 45.9219 80.1489C45.4467 80.5548 44.844 80.7808 44.2191 80.7875C43.5942 80.7943 42.9868 80.5813 42.503 80.1858C42.2978 80.013 42.1207 79.8093 41.9783 79.5819C41.751 79.2251 39.83 76.004 41.3869 72.4047C42.7498 69.2529 46.2502 67.1202 51.7913 66.0587Z" fill="#D2B48C"/>
</g>
<defs>
<clipPath id="clip0_321_1377">
<rect width="113.754" height="113.754" fill="white" transform="translate(12.71) rotate(40.3895)"/>
</clipPath>
</defs>
</svg>
